<svg xmlns="http://www.w3.org/2000/svg" width="2396" height="3028.7999999999993" viewBox="0 0 2396 3028.7999999999993">
<defs></defs>
<rect width="2396" height="3028.7999999999993" fill="#FFFFFF"/>
<rect x="0" y="0" width="260" height="1069.1999999999998" fill="#F8F8F8"/>
<text x="20" y="37" font-family="Inter, system-ui, sans-serif" font-size="13" font-weight="bold" fill="#1A1A1A">Intake Service Blueprint</text>
<text x="20" y="67" font-family="Inter, system-ui, sans-serif" font-size="10" fill="#888888">Card types — copy to add</text>
<clipPath id="cc42"><rect x="20" y="101" width="220" height="113.8" rx="8"/></clipPath>
<g clip-path="url(#cc42)">
  <rect x="20" y="101" width="220" height="69.0" fill="#D97C20"/>
  <rect x="20" y="170.0" width="220" height="44.8" fill="#FDECD4"/>
</g>
<text x="34" y="115.0" font-family="Inter, system-ui, sans-serif" font-size="14" font-weight="bold" fill="#3D1800"><tspan x="34" dy="14.0">APPLICANT</tspan></text>
<g transform="translate(-203.210,-299.807) scale(1.31246)"><path d="M186.071 336.826C186.844 336.826 187.471 337.453 187.471 338.226C187.471 338.999 186.844 339.626 186.071 339.626C185.297 339.626 184.671 338.999 184.671 338.226C184.671 337.453 185.297 336.826 186.071 336.826ZM186.071 342.826C188.054 342.826 190.137 343.796 190.137 344.226V344.959H182.004V344.226C182.004 343.796 184.087 342.826 186.071 342.826ZM186.071 335.559C184.597 335.559 183.404 336.753 183.404 338.226C183.404 339.696 184.597 340.893 186.071 340.893C187.544 340.893 188.737 339.696 188.737 338.226C188.737 336.753 187.544 335.559 186.071 335.559ZM186.071 341.559C184.294 341.559 180.737 342.449 180.737 344.226V346.226H191.404V344.226C191.404 342.449 187.847 341.559 186.071 341.559Z" fill="#3D1800"/></g>
<text x="52" y="140.6" font-family="Inter, system-ui, sans-serif" font-size="11" font-weight="normal" fill="#3D1800"><tspan x="52" dy="11.0">APPLICANT</tspan></text>
<text x="34" y="184.0" font-family="Inter, system-ui, sans-serif" font-size="12" font-weight="normal" fill="#3D1800"><tspan x="34" dy="12.0">Description</tspan></text>
<clipPath id="cc43"><rect x="20" y="224.8" width="220" height="113.8" rx="8"/></clipPath>
<g clip-path="url(#cc43)">
  <rect x="20" y="224.8" width="220" height="69.0" fill="#2B1A78"/>
  <rect x="20" y="293.8" width="220" height="44.8" fill="#EEEBFF"/>
</g>
<text x="34" y="238.8" font-family="Inter, system-ui, sans-serif" font-size="14" font-weight="bold" fill="#FFFFFF"><tspan x="34" dy="14.0">CASEWORKER</tspan></text>
<g transform="translate(-203.210,-176.007) scale(1.31246)"><path d="M186.071 336.826C186.844 336.826 187.471 337.453 187.471 338.226C187.471 338.999 186.844 339.626 186.071 339.626C185.297 339.626 184.671 338.999 184.671 338.226C184.671 337.453 185.297 336.826 186.071 336.826ZM186.071 342.826C188.054 342.826 190.137 343.796 190.137 344.226V344.959H182.004V344.226C182.004 343.796 184.087 342.826 186.071 342.826ZM186.071 335.559C184.597 335.559 183.404 336.753 183.404 338.226C183.404 339.696 184.597 340.893 186.071 340.893C187.544 340.893 188.737 339.696 188.737 338.226C188.737 336.753 187.544 335.559 186.071 335.559ZM186.071 341.559C184.294 341.559 180.737 342.449 180.737 344.226V346.226H191.404V344.226C191.404 342.449 187.847 341.559 186.071 341.559Z" fill="#FFFFFF"/></g>
<text x="52" y="264.4" font-family="Inter, system-ui, sans-serif" font-size="11" font-weight="normal" fill="#FFFFFF"><tspan x="52" dy="11.0">CASEWORKER</tspan></text>
<text x="34" y="307.8" font-family="Inter, system-ui, sans-serif" font-size="12" font-weight="normal" fill="#1A1040"><tspan x="34" dy="12.0">Description</tspan></text>
<clipPath id="cc44"><rect x="20" y="348.6" width="220" height="113.8" rx="8"/></clipPath>
<g clip-path="url(#cc44)">
  <rect x="20" y="348.6" width="220" height="69.0" fill="#4F41B2"/>
  <rect x="20" y="417.6" width="220" height="44.8" fill="#EEEBFF"/>
</g>
<text x="34" y="362.6" font-family="Inter, system-ui, sans-serif" font-size="14" font-weight="bold" fill="#FFFFFF"><tspan x="34" dy="14.0">SUPERVISOR</tspan></text>
<g transform="translate(-136.609,-241.047) scale(0.95452)"><path d="M189.071 664.559C188.267 664.559 187.021 664.783 186.071 665.229C185.121 664.783 183.874 664.559 183.071 664.559C181.627 664.559 178.737 665.283 178.737 666.726V668.559H193.404V666.726C193.404 665.283 190.514 664.559 189.071 664.559ZM186.404 667.559H179.737V666.726C179.737 666.369 181.444 665.559 183.071 665.559C184.697 665.559 186.404 666.369 186.404 666.726V667.559ZM192.404 667.559H187.404V666.726C187.404 666.423 187.271 666.153 187.057 665.913C187.647 665.713 188.367 665.559 189.071 665.559C190.697 665.559 192.404 666.369 192.404 666.726V667.559ZM183.071 663.893C184.361 663.893 185.404 662.846 185.404 661.559C185.404 660.273 184.361 659.226 183.071 659.226C181.784 659.226 180.737 660.273 180.737 661.559C180.737 662.846 181.784 663.893 183.071 663.893ZM183.071 660.226C183.807 660.226 184.404 660.823 184.404 661.559C184.404 662.296 183.807 662.893 183.071 662.893C182.334 662.893 181.737 662.296 181.737 661.559C181.737 660.823 182.334 660.226 183.071 660.226ZM189.071 663.893C190.361 663.893 191.404 662.846 191.404 661.559C191.404 660.273 190.361 659.226 189.071 659.226C187.784 659.226 186.737 660.273 186.737 661.559C186.737 662.846 187.784 663.893 189.071 663.893ZM189.071 660.226C189.807 660.226 190.404 660.823 190.404 661.559C190.404 662.296 189.807 662.893 189.071 662.893C188.334 662.893 187.737 662.296 187.737 661.559C187.737 660.823 188.334 660.226 189.071 660.226Z" fill="#FFFFFF"/></g>
<text x="52" y="388.2" font-family="Inter, system-ui, sans-serif" font-size="11" font-weight="normal" fill="#FFFFFF"><tspan x="52" dy="11.0">SUPERVISOR</tspan></text>
<text x="34" y="431.6" font-family="Inter, system-ui, sans-serif" font-size="12" font-weight="normal" fill="#1A1040"><tspan x="34" dy="12.0">Description</tspan></text>
<clipPath id="cc45"><rect x="20" y="472.40000000000003" width="220" height="113.8" rx="8"/></clipPath>
<g clip-path="url(#cc45)">
  <rect x="20" y="472.40000000000003" width="220" height="69.0" fill="#137C69"/>
  <rect x="20" y="541.4" width="220" height="44.8" fill="#F1FFFD"/>
</g>
<text x="34" y="486.4" font-family="Inter, system-ui, sans-serif" font-size="14" font-weight="bold" fill="#FFFFFF"><tspan x="34" dy="14.0">SYSTEM</tspan></text>
<g transform="translate(-154.618,-517.263) scale(1.05003)"><path d="M187.405 980.226C187.572 980.226 187.713 980.346 187.733 980.506L187.985 982.273C188.392 982.439 188.766 982.659 189.112 982.926L190.773 982.259C190.806 982.246 190.846 982.24 190.886 982.24C191.006 982.24 191.119 982.299 191.179 982.406L192.512 984.712C192.592 984.859 192.559 985.039 192.433 985.139L191.026 986.24C191.052 986.453 191.072 986.666 191.072 986.893C191.072 987.119 191.052 987.333 191.026 987.546L192.433 988.646C192.559 988.746 192.592 988.926 192.512 989.073L191.179 991.379C191.119 991.486 191.006 991.546 190.893 991.546C190.853 991.546 190.813 991.539 190.773 991.526L189.112 990.86C188.766 991.12 188.392 991.346 187.985 991.513L187.733 993.28C187.712 993.439 187.572 993.559 187.405 993.559H184.739C184.573 993.559 184.432 993.439 184.412 993.28L184.159 991.513C183.753 991.346 183.379 991.126 183.032 990.86L181.372 991.526C181.339 991.539 181.299 991.546 181.259 991.546C181.139 991.546 181.026 991.486 180.966 991.379L179.632 989.073C179.552 988.926 179.585 988.746 179.712 988.646L181.119 987.546C181.093 987.333 181.072 987.113 181.072 986.893C181.072 986.673 181.093 986.453 181.119 986.24L179.712 985.139C179.586 985.039 179.545 984.859 179.632 984.712L180.966 982.406C181.026 982.299 181.139 982.24 181.252 982.24C181.292 982.24 181.332 982.246 181.372 982.259L183.032 982.926C183.379 982.666 183.753 982.439 184.159 982.273L184.412 980.506C184.432 980.346 184.573 980.226 184.739 980.226H187.405ZM185.472 982.459L185.365 983.212L184.659 983.499C184.386 983.613 184.112 983.772 183.825 983.986L183.226 984.439L182.532 984.159L181.686 983.82L181.219 984.626L181.939 985.186L182.532 985.653L182.439 986.406C182.419 986.606 182.405 986.76 182.405 986.893C182.405 987.026 182.419 987.18 182.439 987.386L182.532 988.139L181.939 988.606L181.219 989.166L181.686 989.973L182.532 989.632L183.239 989.346L183.846 989.813C184.112 990.013 184.379 990.166 184.665 990.285L185.372 990.573L185.479 991.326L185.606 992.226H186.539L186.672 991.326L186.779 990.573L187.485 990.285C187.759 990.172 188.032 990.012 188.318 989.799L188.919 989.346L189.612 989.626L190.459 989.966L190.926 989.159L190.205 988.599L189.612 988.132L189.705 987.379C189.725 987.179 189.739 987.033 189.739 986.893C189.739 986.753 189.732 986.612 189.705 986.406L189.612 985.653L190.205 985.186L190.919 984.619L190.452 983.813L189.606 984.153L188.899 984.439L188.292 983.973C188.025 983.773 187.758 983.619 187.472 983.499L186.766 983.212L186.659 982.459L186.532 981.559H185.606L185.472 982.459ZM186.072 984.226C187.546 984.226 188.739 985.42 188.739 986.893C188.739 988.366 187.546 989.559 186.072 989.559C184.599 989.559 183.406 988.366 183.405 986.893C183.405 985.42 184.599 984.226 186.072 984.226ZM186.072 985.559C185.339 985.559 184.739 986.16 184.739 986.893C184.74 987.626 185.339 988.226 186.072 988.226C186.806 988.226 187.405 987.626 187.405 986.893C187.405 986.16 186.806 985.559 186.072 985.559Z" fill="#FFFFFF"/></g>
<text x="52" y="512.0" font-family="Inter, system-ui, sans-serif" font-size="11" font-weight="normal" fill="#FFFFFF"><tspan x="52" dy="11.0">SYSTEM (DOMAIN)</tspan></text>
<text x="34" y="555.4" font-family="Inter, system-ui, sans-serif" font-size="12" font-weight="normal" fill="#0A3A2E"><tspan x="34" dy="12.0">Description</tspan></text>
<clipPath id="cc46"><rect x="20" y="596.2" width="220" height="113.8" rx="8"/></clipPath>
<g clip-path="url(#cc46)">
  <rect x="20" y="596.2" width="220" height="69.0" fill="#EDD7CD"/>
  <rect x="20" y="665.2" width="220" height="44.8" fill="#F8F6F5"/>
</g>
<text x="34" y="610.2" font-family="Inter, system-ui, sans-serif" font-size="14" font-weight="bold" fill="#3D2B0E"><tspan x="34" dy="14.0">POLICY</tspan></text>
<g transform="translate(-154.771,-2768.343) scale(1.05026)"><path d="M182.737 3247.23H181.404V3251.89H182.737V3247.23ZM186.737 3247.23H185.404V3251.89H186.737V3247.23ZM192.404 3253.23H179.737V3254.56H192.404V3253.23ZM190.737 3247.23H189.404V3251.89H190.737V3247.23ZM186.071 3242.73L189.544 3244.56H182.597L186.071 3242.73ZM186.071 3241.23L179.737 3244.56V3245.89H192.404V3244.56L186.071 3241.23Z" fill="#3D2B0E"/></g>
<text x="52" y="635.8" font-family="Inter, system-ui, sans-serif" font-size="11" font-weight="normal" fill="#3D2B0E"><tspan x="52" dy="11.0">POLICY</tspan></text>
<text x="34" y="679.2" font-family="Inter, system-ui, sans-serif" font-size="12" font-weight="normal" fill="#3D2B0E"><tspan x="34" dy="12.0">Description</tspan></text>
<clipPath id="cc47"><rect x="20" y="720" width="220" height="113.8" rx="8"/></clipPath>
<g clip-path="url(#cc47)">
  <rect x="20" y="720" width="220" height="69.0" fill="#2E6276"/>
  <rect x="20" y="789.0" width="220" height="44.8" fill="#E7F2F5"/>
</g>
<text x="34" y="734.0" font-family="Inter, system-ui, sans-serif" font-size="14" font-weight="bold" fill="#FFFFFF"><tspan x="34" dy="14.0">EVENT</tspan></text>
<g transform="translate(34.000,759.600) scale(0.58333)"><path d="M7 2v11h3v9l7-12h-4l4-8z" fill="#FFFFFF"/></g>
<text x="52" y="759.6" font-family="Inter, system-ui, sans-serif" font-size="11" font-weight="normal" fill="#FFFFFF"><tspan x="52" dy="11.0">EVENT (PUBLISHED)</tspan></text>
<text x="34" y="803.0" font-family="Inter, system-ui, sans-serif" font-size="12" font-weight="normal" fill="#0A2E34"><tspan x="34" dy="12.0">Description</tspan></text>
<clipPath id="cc48"><rect x="20" y="843.8" width="220" height="113.8" rx="8"/></clipPath>
<g clip-path="url(#cc48)">
  <rect x="20" y="843.8" width="220" height="69.0" fill="#154C21"/>
  <rect x="20" y="912.8" width="220" height="44.8" fill="#E3F5E1"/>
</g>
<text x="34" y="857.8" font-family="Inter, system-ui, sans-serif" font-size="14" font-weight="bold" fill="#FFFFFF"><tspan x="34" dy="14.0">DATA</tspan></text>
<g transform="translate(34.000,883.400) scale(0.58333)"><path d="M14 2H6c-1.1 0-1.99.9-1.99 2L4 20c0 1.1.89 2 1.99 2H18c1.1 0 2-.9 2-2V8l-6-6zm2 16H8v-2h8v2zm0-4H8v-2h8v2zm-3-5V3.5L18.5 9H13z" fill="#FFFFFF"/></g>
<text x="52" y="883.4" font-family="Inter, system-ui, sans-serif" font-size="11" font-weight="normal" fill="#FFFFFF"><tspan x="52" dy="11.0">DATA</tspan></text>
<text x="34" y="926.8" font-family="Inter, system-ui, sans-serif" font-size="12" font-weight="normal" fill="#0A2E1E"><tspan x="34" dy="12.0">Description</tspan></text>
<rect x="20" y="967.5999999999999" width="220" height="67.6" rx="8" fill="#FDDA40"/>
<text x="34" y="981.6" font-family="Inter, system-ui, sans-serif" font-size="13" font-weight="bold" fill="#333333"><tspan x="34" dy="13.0">Note</tspan></text>
<text x="34" y="1005.8" font-family="Inter, system-ui, sans-serif" font-size="11" font-weight="normal" fill="#555555"><tspan x="34" dy="11.0">Description</tspan></text>
<text x="376" y="31" text-anchor="middle" font-family="Inter, system-ui, sans-serif" font-size="13" font-weight="bold" fill="#1A1A1A">Phase</text>
<text x="576" y="31" text-anchor="middle" font-family="Inter, system-ui, sans-serif" font-size="15" font-weight="bold" fill="#1A1A1A">Application intake</text>
<text x="1276" y="31" text-anchor="middle" font-family="Inter, system-ui, sans-serif" font-size="15" font-weight="bold" fill="#1A1A1A">Application review</text>
<text x="2116" y="31" text-anchor="middle" font-family="Inter, system-ui, sans-serif" font-size="15" font-weight="bold" fill="#1A1A1A">Eligibility determination</text>
<line x1="316" y1="52" x2="2396" y2="52" stroke="#1A1A1A" stroke-width="2"/>
<text x="376" y="76" text-anchor="middle" font-family="Inter, system-ui, sans-serif" font-size="11" font-weight="bold" fill="#1A1A1A">Sub phase</text>
<text x="576" y="76" text-anchor="middle" font-family="Inter, system-ui, sans-serif" font-size="13" font-weight="bold" fill="#1A1A1A">Submission</text>
<text x="856" y="76" text-anchor="middle" font-family="Inter, system-ui, sans-serif" font-size="13" font-weight="bold" fill="#1A1A1A">Automated screening</text>
<text x="1136" y="76" text-anchor="middle" font-family="Inter, system-ui, sans-serif" font-size="13" font-weight="bold" fill="#1A1A1A">Task assignment</text>
<text x="1416" y="76" text-anchor="middle" font-family="Inter, system-ui, sans-serif" font-size="13" font-weight="bold" fill="#1A1A1A">Verification review</text>
<text x="1696" y="76" text-anchor="middle" font-family="Inter, system-ui, sans-serif" font-size="13" font-weight="bold" fill="#1A1A1A">Program verification</text>
<text x="1976" y="76" text-anchor="middle" font-family="Inter, system-ui, sans-serif" font-size="13" font-weight="bold" fill="#1A1A1A">Determination</text>
<text x="2256" y="76" text-anchor="middle" font-family="Inter, system-ui, sans-serif" font-size="13" font-weight="bold" fill="#1A1A1A">Closeout</text>
<line x1="316" y1="92" x2="2396" y2="92" stroke="#AAAAAA" stroke-width="1"/>
<text x="376" y="173.3" text-anchor="middle" font-family="Inter, system-ui, sans-serif" font-size="11" font-weight="bold" fill="#555555">Applicant</text>
<line x1="436" y1="92" x2="436" y2="246.6" stroke="#DDDDDD" stroke-width="1"/>
<clipPath id="cc49"><rect x="448" y="104" width="256" height="130.6" rx="8"/></clipPath>
<g clip-path="url(#cc49)">
  <rect x="448" y="104" width="256" height="69.0" fill="#D97C20"/>
  <rect x="448" y="173.0" width="256" height="61.6" fill="#FDECD4"/>
</g>
<text x="462" y="118.0" font-family="Inter, system-ui, sans-serif" font-size="14" font-weight="bold" fill="#3D1800"><tspan x="462" dy="14.0">Submits application</tspan></text>
<g transform="translate(224.790,-296.807) scale(1.31246)"><path d="M186.071 336.826C186.844 336.826 187.471 337.453 187.471 338.226C187.471 338.999 186.844 339.626 186.071 339.626C185.297 339.626 184.671 338.999 184.671 338.226C184.671 337.453 185.297 336.826 186.071 336.826ZM186.071 342.826C188.054 342.826 190.137 343.796 190.137 344.226V344.959H182.004V344.226C182.004 343.796 184.087 342.826 186.071 342.826ZM186.071 335.559C184.597 335.559 183.404 336.753 183.404 338.226C183.404 339.696 184.597 340.893 186.071 340.893C187.544 340.893 188.737 339.696 188.737 338.226C188.737 336.753 187.544 335.559 186.071 335.559ZM186.071 341.559C184.294 341.559 180.737 342.449 180.737 344.226V346.226H191.404V344.226C191.404 342.449 187.847 341.559 186.071 341.559Z" fill="#3D1800"/></g>
<text x="480" y="143.6" font-family="Inter, system-ui, sans-serif" font-size="11" font-weight="normal" fill="#3D1800"><tspan x="480" dy="11.0">APPLICANT</tspan></text>
<text x="462" y="187.0" font-family="Inter, system-ui, sans-serif" font-size="12" font-weight="normal" fill="#3D1800"><tspan x="462" dy="12.0">Online or in person; caseworker</tspan><tspan x="462" dy="16.8">may submit on behalf of applicant</tspan></text>
<line x1="716" y1="92" x2="716" y2="246.6" stroke="#1A1A1A" stroke-width="3"/>
<line x1="996" y1="92" x2="996" y2="246.6" stroke="#DDDDDD" stroke-width="1"/>
<line x1="1276" y1="92" x2="1276" y2="246.6" stroke="#DDDDDD" stroke-width="1"/>
<line x1="1556" y1="92" x2="1556" y2="246.6" stroke="#DDDDDD" stroke-width="1"/>
<line x1="1836" y1="92" x2="1836" y2="246.6" stroke="#1A1A1A" stroke-width="3"/>
<line x1="2116" y1="92" x2="2116" y2="246.6" stroke="#DDDDDD" stroke-width="1"/>
<line x1="316" y1="246.6" x2="2396" y2="246.6" stroke="#CCCCCC" stroke-width="1"/>
<text x="376" y="466.29999999999995" text-anchor="middle" font-family="Inter, system-ui, sans-serif" font-size="11" font-weight="bold" fill="#555555">Caseworker</text>
<line x1="436" y1="246.6" x2="436" y2="677.9999999999999" stroke="#DDDDDD" stroke-width="1"/>
<line x1="716" y1="246.6" x2="716" y2="677.9999999999999" stroke="#1A1A1A" stroke-width="3"/>
<line x1="996" y1="246.6" x2="996" y2="677.9999999999999" stroke="#DDDDDD" stroke-width="1"/>
<clipPath id="cc50"><rect x="1008" y="258.6" width="256" height="130.6" rx="8"/></clipPath>
<g clip-path="url(#cc50)">
  <rect x="1008" y="258.6" width="256" height="69.0" fill="#2B1A78"/>
  <rect x="1008" y="327.6" width="256" height="61.6" fill="#EEEBFF"/>
</g>
<text x="1022" y="272.6" font-family="Inter, system-ui, sans-serif" font-size="14" font-weight="bold" fill="#FFFFFF"><tspan x="1022" dy="14.0">Claims task from queue</tspan></text>
<g transform="translate(784.790,-142.207) scale(1.31246)"><path d="M186.071 336.826C186.844 336.826 187.471 337.453 187.471 338.226C187.471 338.999 186.844 339.626 186.071 339.626C185.297 339.626 184.671 338.999 184.671 338.226C184.671 337.453 185.297 336.826 186.071 336.826ZM186.071 342.826C188.054 342.826 190.137 343.796 190.137 344.226V344.959H182.004V344.226C182.004 343.796 184.087 342.826 186.071 342.826ZM186.071 335.559C184.597 335.559 183.404 336.753 183.404 338.226C183.404 339.696 184.597 340.893 186.071 340.893C187.544 340.893 188.737 339.696 188.737 338.226C188.737 336.753 187.544 335.559 186.071 335.559ZM186.071 341.559C184.294 341.559 180.737 342.449 180.737 344.226V346.226H191.404V344.226C191.404 342.449 187.847 341.559 186.071 341.559Z" fill="#FFFFFF"/></g>
<text x="1040" y="298.2" font-family="Inter, system-ui, sans-serif" font-size="11" font-weight="normal" fill="#FFFFFF"><tspan x="1040" dy="11.0">CASEWORKER</tspan></text>
<text x="1022" y="341.6" font-family="Inter, system-ui, sans-serif" font-size="12" font-weight="normal" fill="#1A1040"><tspan x="1022" dy="12.0">Caseworker selects from</tspan><tspan x="1022" dy="16.8">prioritized intake queue</tspan></text>
<clipPath id="cc51"><rect x="1008" y="401.20000000000005" width="256" height="147.4" rx="8"/></clipPath>
<g clip-path="url(#cc51)">
  <rect x="1008" y="401.20000000000005" width="256" height="69.0" fill="#2B1A78"/>
  <rect x="1008" y="470.2" width="256" height="78.4" fill="#EEEBFF"/>
</g>
<text x="1022" y="415.2" font-family="Inter, system-ui, sans-serif" font-size="14" font-weight="bold" fill="#FFFFFF"><tspan x="1022" dy="14.0">Schedules interview</tspan></text>
<g transform="translate(784.790,0.393) scale(1.31246)"><path d="M186.071 336.826C186.844 336.826 187.471 337.453 187.471 338.226C187.471 338.999 186.844 339.626 186.071 339.626C185.297 339.626 184.671 338.999 184.671 338.226C184.671 337.453 185.297 336.826 186.071 336.826ZM186.071 342.826C188.054 342.826 190.137 343.796 190.137 344.226V344.959H182.004V344.226C182.004 343.796 184.087 342.826 186.071 342.826ZM186.071 335.559C184.597 335.559 183.404 336.753 183.404 338.226C183.404 339.696 184.597 340.893 186.071 340.893C187.544 340.893 188.737 339.696 188.737 338.226C188.737 336.753 187.544 335.559 186.071 335.559ZM186.071 341.559C184.294 341.559 180.737 342.449 180.737 344.226V346.226H191.404V344.226C191.404 342.449 187.847 341.559 186.071 341.559Z" fill="#FFFFFF"/></g>
<text x="1040" y="440.8" font-family="Inter, system-ui, sans-serif" font-size="11" font-weight="normal" fill="#FFFFFF"><tspan x="1040" dy="11.0">CASEWORKER</tspan></text>
<text x="1022" y="484.2" font-family="Inter, system-ui, sans-serif" font-size="12" font-weight="normal" fill="#1A1040"><tspan x="1022" dy="12.0">Launched from within intake —</tspan><tspan x="1022" dy="16.8">ensures appointment links to</tspan><tspan x="1022" dy="16.8">application</tspan></text>
<line x1="1276" y1="246.6" x2="1276" y2="677.9999999999999" stroke="#DDDDDD" stroke-width="1"/>
<clipPath id="cc52"><rect x="1288" y="258.6" width="256" height="186.6" rx="8"/></clipPath>
<g clip-path="url(#cc52)">
  <rect x="1288" y="258.6" width="256" height="108.2" fill="#2B1A78"/>
  <rect x="1288" y="366.8" width="256" height="78.4" fill="#EEEBFF"/>
</g>
<text x="1302" y="272.6" font-family="Inter, system-ui, sans-serif" font-size="14" font-weight="bold" fill="#FFFFFF"><tspan x="1302" dy="14.0">Reviews verification results;</tspan><tspan x="1302" dy="19.6">resolves satisfied items;</tspan><tspan x="1302" dy="19.6">flags items needing follow-up</tspan></text>
<g transform="translate(1064.790,-103.007) scale(1.31246)"><path d="M186.071 336.826C186.844 336.826 187.471 337.453 187.471 338.226C187.471 338.999 186.844 339.626 186.071 339.626C185.297 339.626 184.671 338.999 184.671 338.226C184.671 337.453 185.297 336.826 186.071 336.826ZM186.071 342.826C188.054 342.826 190.137 343.796 190.137 344.226V344.959H182.004V344.226C182.004 343.796 184.087 342.826 186.071 342.826ZM186.071 335.559C184.597 335.559 183.404 336.753 183.404 338.226C183.404 339.696 184.597 340.893 186.071 340.893C187.544 340.893 188.737 339.696 188.737 338.226C188.737 336.753 187.544 335.559 186.071 335.559ZM186.071 341.559C184.294 341.559 180.737 342.449 180.737 344.226V346.226H191.404V344.226C191.404 342.449 187.847 341.559 186.071 341.559Z" fill="#FFFFFF"/></g>
<text x="1320" y="337.4" font-family="Inter, system-ui, sans-serif" font-size="11" font-weight="normal" fill="#FFFFFF"><tspan x="1320" dy="11.0">CASEWORKER</tspan></text>
<text x="1302" y="380.8" font-family="Inter, system-ui, sans-serif" font-size="12" font-weight="normal" fill="#1A1040"><tspan x="1302" dy="12.0">Ongoing as results arrive — may</tspan><tspan x="1302" dy="16.8">trigger document requests or</tspan><tspan x="1302" dy="16.8">outreach before interview</tspan></text>
<clipPath id="cc53"><rect x="1288" y="457.2" width="256" height="88.6" rx="8"/></clipPath>
<g clip-path="url(#cc53)">
  <rect x="1288" y="457.2" width="256" height="88.6" fill="#2B1A78"/>
</g>
<text x="1302" y="471.2" font-family="Inter, system-ui, sans-serif" font-size="14" font-weight="bold" fill="#FFFFFF"><tspan x="1302" dy="14.0">Escalates complex case or</tspan><tspan x="1302" dy="19.6">policy question</tspan></text>
<g transform="translate(1064.790,75.993) scale(1.31246)"><path d="M186.071 336.826C186.844 336.826 187.471 337.453 187.471 338.226C187.471 338.999 186.844 339.626 186.071 339.626C185.297 339.626 184.671 338.999 184.671 338.226C184.671 337.453 185.297 336.826 186.071 336.826ZM186.071 342.826C188.054 342.826 190.137 343.796 190.137 344.226V344.959H182.004V344.226C182.004 343.796 184.087 342.826 186.071 342.826ZM186.071 335.559C184.597 335.559 183.404 336.753 183.404 338.226C183.404 339.696 184.597 340.893 186.071 340.893C187.544 340.893 188.737 339.696 188.737 338.226C188.737 336.753 187.544 335.559 186.071 335.559ZM186.071 341.559C184.294 341.559 180.737 342.449 180.737 344.226V346.226H191.404V344.226C191.404 342.449 187.847 341.559 186.071 341.559Z" fill="#FFFFFF"/></g>
<text x="1320" y="516.4" font-family="Inter, system-ui, sans-serif" font-size="11" font-weight="normal" fill="#FFFFFF"><tspan x="1320" dy="11.0">CASEWORKER</tspan></text>
<clipPath id="cc54"><rect x="1288" y="557.8" width="256" height="108.2" rx="8"/></clipPath>
<g clip-path="url(#cc54)">
  <rect x="1288" y="557.8" width="256" height="108.2" fill="#4F41B2"/>
</g>
<text x="1302" y="571.8" font-family="Inter, system-ui, sans-serif" font-size="14" font-weight="bold" fill="#FFFFFF"><tspan x="1302" dy="14.0">Reviews escalation; provides</tspan><tspan x="1302" dy="19.6">guidance or takes over</tspan><tspan x="1302" dy="19.6">resolution</tspan></text>
<g transform="translate(1131.391,7.353) scale(0.95452)"><path d="M189.071 664.559C188.267 664.559 187.021 664.783 186.071 665.229C185.121 664.783 183.874 664.559 183.071 664.559C181.627 664.559 178.737 665.283 178.737 666.726V668.559H193.404V666.726C193.404 665.283 190.514 664.559 189.071 664.559ZM186.404 667.559H179.737V666.726C179.737 666.369 181.444 665.559 183.071 665.559C184.697 665.559 186.404 666.369 186.404 666.726V667.559ZM192.404 667.559H187.404V666.726C187.404 666.423 187.271 666.153 187.057 665.913C187.647 665.713 188.367 665.559 189.071 665.559C190.697 665.559 192.404 666.369 192.404 666.726V667.559ZM183.071 663.893C184.361 663.893 185.404 662.846 185.404 661.559C185.404 660.273 184.361 659.226 183.071 659.226C181.784 659.226 180.737 660.273 180.737 661.559C180.737 662.846 181.784 663.893 183.071 663.893ZM183.071 660.226C183.807 660.226 184.404 660.823 184.404 661.559C184.404 662.296 183.807 662.893 183.071 662.893C182.334 662.893 181.737 662.296 181.737 661.559C181.737 660.823 182.334 660.226 183.071 660.226ZM189.071 663.893C190.361 663.893 191.404 662.846 191.404 661.559C191.404 660.273 190.361 659.226 189.071 659.226C187.784 659.226 186.737 660.273 186.737 661.559C186.737 662.846 187.784 663.893 189.071 663.893ZM189.071 660.226C189.807 660.226 190.404 660.823 190.404 661.559C190.404 662.296 189.807 662.893 189.071 662.893C188.334 662.893 187.737 662.296 187.737 661.559C187.737 660.823 188.334 660.226 189.071 660.226Z" fill="#FFFFFF"/></g>
<text x="1320" y="636.6" font-family="Inter, system-ui, sans-serif" font-size="11" font-weight="normal" fill="#FFFFFF"><tspan x="1320" dy="11.0">SUPERVISOR</tspan></text>
<line x1="1556" y1="246.6" x2="1556" y2="677.9999999999999" stroke="#DDDDDD" stroke-width="1"/>
<clipPath id="cc55"><rect x="1568" y="258.6" width="256" height="88.6" rx="8"/></clipPath>
<g clip-path="url(#cc55)">
  <rect x="1568" y="258.6" width="256" height="88.6" fill="#2B1A78"/>
</g>
<text x="1582" y="272.6" font-family="Inter, system-ui, sans-serif" font-size="14" font-weight="bold" fill="#FFFFFF"><tspan x="1582" dy="14.0">Conducts interview; resolves</tspan><tspan x="1582" dy="19.6">remaining verification items</tspan></text>
<g transform="translate(1344.790,-122.607) scale(1.31246)"><path d="M186.071 336.826C186.844 336.826 187.471 337.453 187.471 338.226C187.471 338.999 186.844 339.626 186.071 339.626C185.297 339.626 184.671 338.999 184.671 338.226C184.671 337.453 185.297 336.826 186.071 336.826ZM186.071 342.826C188.054 342.826 190.137 343.796 190.137 344.226V344.959H182.004V344.226C182.004 343.796 184.087 342.826 186.071 342.826ZM186.071 335.559C184.597 335.559 183.404 336.753 183.404 338.226C183.404 339.696 184.597 340.893 186.071 340.893C187.544 340.893 188.737 339.696 188.737 338.226C188.737 336.753 187.544 335.559 186.071 335.559ZM186.071 341.559C184.294 341.559 180.737 342.449 180.737 344.226V346.226H191.404V344.226C191.404 342.449 187.847 341.559 186.071 341.559Z" fill="#FFFFFF"/></g>
<text x="1600" y="317.8" font-family="Inter, system-ui, sans-serif" font-size="11" font-weight="normal" fill="#FFFFFF"><tspan x="1600" dy="11.0">CASEWORKER</tspan></text>
<line x1="1836" y1="246.6" x2="1836" y2="677.9999999999999" stroke="#1A1A1A" stroke-width="3"/>
<clipPath id="cc56"><rect x="1848" y="258.6" width="256" height="147.4" rx="8"/></clipPath>
<g clip-path="url(#cc56)">
  <rect x="1848" y="258.6" width="256" height="69.0" fill="#2B1A78"/>
  <rect x="1848" y="327.6" width="256" height="78.4" fill="#EEEBFF"/>
</g>
<text x="1862" y="272.6" font-family="Inter, system-ui, sans-serif" font-size="14" font-weight="bold" fill="#FFFFFF"><tspan x="1862" dy="14.0">Reviews determination results</tspan></text>
<g transform="translate(1624.790,-142.207) scale(1.31246)"><path d="M186.071 336.826C186.844 336.826 187.471 337.453 187.471 338.226C187.471 338.999 186.844 339.626 186.071 339.626C185.297 339.626 184.671 338.999 184.671 338.226C184.671 337.453 185.297 336.826 186.071 336.826ZM186.071 342.826C188.054 342.826 190.137 343.796 190.137 344.226V344.959H182.004V344.226C182.004 343.796 184.087 342.826 186.071 342.826ZM186.071 335.559C184.597 335.559 183.404 336.753 183.404 338.226C183.404 339.696 184.597 340.893 186.071 340.893C187.544 340.893 188.737 339.696 188.737 338.226C188.737 336.753 187.544 335.559 186.071 335.559ZM186.071 341.559C184.294 341.559 180.737 342.449 180.737 344.226V346.226H191.404V344.226C191.404 342.449 187.847 341.559 186.071 341.559Z" fill="#FFFFFF"/></g>
<text x="1880" y="298.2" font-family="Inter, system-ui, sans-serif" font-size="11" font-weight="normal" fill="#FFFFFF"><tspan x="1880" dy="11.0">CASEWORKER</tspan></text>
<text x="1862" y="341.6" font-family="Inter, system-ui, sans-serif" font-size="12" font-weight="normal" fill="#1A1040"><tspan x="1862" dy="12.0">Exception review only — not</tspan><tspan x="1862" dy="16.8">approving a calculation they</tspan><tspan x="1862" dy="16.8">triggered</tspan></text>
<line x1="2116" y1="246.6" x2="2116" y2="677.9999999999999" stroke="#DDDDDD" stroke-width="1"/>
<clipPath id="cc57"><rect x="2128" y="258.6" width="256" height="150.2" rx="8"/></clipPath>
<g clip-path="url(#cc57)">
  <rect x="2128" y="258.6" width="256" height="88.6" fill="#2B1A78"/>
  <rect x="2128" y="347.2" width="256" height="61.6" fill="#EEEBFF"/>
</g>
<text x="2142" y="272.6" font-family="Inter, system-ui, sans-serif" font-size="14" font-weight="bold" fill="#FFFFFF"><tspan x="2142" dy="14.0">Records determination and</tspan><tspan x="2142" dy="19.6">rationale</tspan></text>
<g transform="translate(1904.790,-122.607) scale(1.31246)"><path d="M186.071 336.826C186.844 336.826 187.471 337.453 187.471 338.226C187.471 338.999 186.844 339.626 186.071 339.626C185.297 339.626 184.671 338.999 184.671 338.226C184.671 337.453 185.297 336.826 186.071 336.826ZM186.071 342.826C188.054 342.826 190.137 343.796 190.137 344.226V344.959H182.004V344.226C182.004 343.796 184.087 342.826 186.071 342.826ZM186.071 335.559C184.597 335.559 183.404 336.753 183.404 338.226C183.404 339.696 184.597 340.893 186.071 340.893C187.544 340.893 188.737 339.696 188.737 338.226C188.737 336.753 187.544 335.559 186.071 335.559ZM186.071 341.559C184.294 341.559 180.737 342.449 180.737 344.226V346.226H191.404V344.226C191.404 342.449 187.847 341.559 186.071 341.559Z" fill="#FFFFFF"/></g>
<text x="2160" y="317.8" font-family="Inter, system-ui, sans-serif" font-size="11" font-weight="normal" fill="#FFFFFF"><tspan x="2160" dy="11.0">CASEWORKER</tspan></text>
<text x="2142" y="361.2" font-family="Inter, system-ui, sans-serif" font-size="12" font-weight="normal" fill="#1A1040"><tspan x="2142" dy="12.0">Eligibility outcome, date, and</tspan><tspan x="2142" dy="16.8">reasoning recorded per program</tspan></text>
<clipPath id="cc58"><rect x="2128" y="420.8" width="256" height="130.6" rx="8"/></clipPath>
<g clip-path="url(#cc58)">
  <rect x="2128" y="420.8" width="256" height="69.0" fill="#4F41B2"/>
  <rect x="2128" y="489.8" width="256" height="61.6" fill="#EEEBFF"/>
</g>
<text x="2142" y="434.8" font-family="Inter, system-ui, sans-serif" font-size="14" font-weight="bold" fill="#FFFFFF"><tspan x="2142" dy="14.0">Approves determination</tspan></text>
<g transform="translate(1971.391,-168.847) scale(0.95452)"><path d="M189.071 664.559C188.267 664.559 187.021 664.783 186.071 665.229C185.121 664.783 183.874 664.559 183.071 664.559C181.627 664.559 178.737 665.283 178.737 666.726V668.559H193.404V666.726C193.404 665.283 190.514 664.559 189.071 664.559ZM186.404 667.559H179.737V666.726C179.737 666.369 181.444 665.559 183.071 665.559C184.697 665.559 186.404 666.369 186.404 666.726V667.559ZM192.404 667.559H187.404V666.726C187.404 666.423 187.271 666.153 187.057 665.913C187.647 665.713 188.367 665.559 189.071 665.559C190.697 665.559 192.404 666.369 192.404 666.726V667.559ZM183.071 663.893C184.361 663.893 185.404 662.846 185.404 661.559C185.404 660.273 184.361 659.226 183.071 659.226C181.784 659.226 180.737 660.273 180.737 661.559C180.737 662.846 181.784 663.893 183.071 663.893ZM183.071 660.226C183.807 660.226 184.404 660.823 184.404 661.559C184.404 662.296 183.807 662.893 183.071 662.893C182.334 662.893 181.737 662.296 181.737 661.559C181.737 660.823 182.334 660.226 183.071 660.226ZM189.071 663.893C190.361 663.893 191.404 662.846 191.404 661.559C191.404 660.273 190.361 659.226 189.071 659.226C187.784 659.226 186.737 660.273 186.737 661.559C186.737 662.846 187.784 663.893 189.071 663.893ZM189.071 660.226C189.807 660.226 190.404 660.823 190.404 661.559C190.404 662.296 189.807 662.893 189.071 662.893C188.334 662.893 187.737 662.296 187.737 661.559C187.737 660.823 188.334 660.226 189.071 660.226Z" fill="#FFFFFF"/></g>
<text x="2160" y="460.4" font-family="Inter, system-ui, sans-serif" font-size="11" font-weight="normal" fill="#FFFFFF"><tspan x="2160" dy="11.0">SUPERVISOR</tspan></text>
<text x="2142" y="503.8" font-family="Inter, system-ui, sans-serif" font-size="12" font-weight="normal" fill="#1A1040"><tspan x="2142" dy="12.0">Required by state policy; previews</tspan><tspan x="2142" dy="16.8">notice before sending</tspan></text>
<line x1="316" y1="677.9999999999999" x2="2396" y2="677.9999999999999" stroke="#CCCCCC" stroke-width="1"/>
<text x="376" y="1308.6999999999998" text-anchor="middle" font-family="Inter, system-ui, sans-serif" font-size="11" font-weight="bold" fill="#555555">System</text>
<line x1="436" y1="677.9999999999999" x2="436" y2="1931.3999999999996" stroke="#DDDDDD" stroke-width="1"/>
<line x1="716" y1="677.9999999999999" x2="716" y2="1931.3999999999996" stroke="#1A1A1A" stroke-width="3"/>
<clipPath id="cc59"><rect x="728" y="689.9999999999999" width="256" height="169.8" rx="8"/></clipPath>
<g clip-path="url(#cc59)">
  <rect x="728" y="689.9999999999999" width="256" height="108.2" fill="#137C69"/>
  <rect x="728" y="798.2" width="256" height="61.6" fill="#F1FFFD"/>
</g>
<text x="742" y="704.0" font-family="Inter, system-ui, sans-serif" font-size="14" font-weight="bold" fill="#FFFFFF"><tspan x="742" dy="14.0">Task created in intake queue;</tspan><tspan x="742" dy="19.6">SLA and queue routing</tspan><tspan x="742" dy="19.6">assigned</tspan></text>
<g transform="translate(553.382,-260.463) scale(1.05003)"><path d="M187.405 980.226C187.572 980.226 187.713 980.346 187.733 980.506L187.985 982.273C188.392 982.439 188.766 982.659 189.112 982.926L190.773 982.259C190.806 982.246 190.846 982.24 190.886 982.24C191.006 982.24 191.119 982.299 191.179 982.406L192.512 984.712C192.592 984.859 192.559 985.039 192.433 985.139L191.026 986.24C191.052 986.453 191.072 986.666 191.072 986.893C191.072 987.119 191.052 987.333 191.026 987.546L192.433 988.646C192.559 988.746 192.592 988.926 192.512 989.073L191.179 991.379C191.119 991.486 191.006 991.546 190.893 991.546C190.853 991.546 190.813 991.539 190.773 991.526L189.112 990.86C188.766 991.12 188.392 991.346 187.985 991.513L187.733 993.28C187.712 993.439 187.572 993.559 187.405 993.559H184.739C184.573 993.559 184.432 993.439 184.412 993.28L184.159 991.513C183.753 991.346 183.379 991.126 183.032 990.86L181.372 991.526C181.339 991.539 181.299 991.546 181.259 991.546C181.139 991.546 181.026 991.486 180.966 991.379L179.632 989.073C179.552 988.926 179.585 988.746 179.712 988.646L181.119 987.546C181.093 987.333 181.072 987.113 181.072 986.893C181.072 986.673 181.093 986.453 181.119 986.24L179.712 985.139C179.586 985.039 179.545 984.859 179.632 984.712L180.966 982.406C181.026 982.299 181.139 982.24 181.252 982.24C181.292 982.24 181.332 982.246 181.372 982.259L183.032 982.926C183.379 982.666 183.753 982.439 184.159 982.273L184.412 980.506C184.432 980.346 184.573 980.226 184.739 980.226H187.405ZM185.472 982.459L185.365 983.212L184.659 983.499C184.386 983.613 184.112 983.772 183.825 983.986L183.226 984.439L182.532 984.159L181.686 983.82L181.219 984.626L181.939 985.186L182.532 985.653L182.439 986.406C182.419 986.606 182.405 986.76 182.405 986.893C182.405 987.026 182.419 987.18 182.439 987.386L182.532 988.139L181.939 988.606L181.219 989.166L181.686 989.973L182.532 989.632L183.239 989.346L183.846 989.813C184.112 990.013 184.379 990.166 184.665 990.285L185.372 990.573L185.479 991.326L185.606 992.226H186.539L186.672 991.326L186.779 990.573L187.485 990.285C187.759 990.172 188.032 990.012 188.318 989.799L188.919 989.346L189.612 989.626L190.459 989.966L190.926 989.159L190.205 988.599L189.612 988.132L189.705 987.379C189.725 987.179 189.739 987.033 189.739 986.893C189.739 986.753 189.732 986.612 189.705 986.406L189.612 985.653L190.205 985.186L190.919 984.619L190.452 983.813L189.606 984.153L188.899 984.439L188.292 983.973C188.025 983.773 187.758 983.619 187.472 983.499L186.766 983.212L186.659 982.459L186.532 981.559H185.606L185.472 982.459ZM186.072 984.226C187.546 984.226 188.739 985.42 188.739 986.893C188.739 988.366 187.546 989.559 186.072 989.559C184.599 989.559 183.406 988.366 183.405 986.893C183.405 985.42 184.599 984.226 186.072 984.226ZM186.072 985.559C185.339 985.559 184.739 986.16 184.739 986.893C184.74 987.626 185.339 988.226 186.072 988.226C186.806 988.226 187.405 987.626 187.405 986.893C187.405 986.16 186.806 985.559 186.072 985.559Z" fill="#FFFFFF"/></g>
<text x="760" y="768.8" font-family="Inter, system-ui, sans-serif" font-size="11" font-weight="normal" fill="#FFFFFF"><tspan x="760" dy="11.0">SYSTEM (WORKFLOW)</tspan></text>
<text x="742" y="812.2" font-family="Inter, system-ui, sans-serif" font-size="12" font-weight="normal" fill="#0A3A2E"><tspan x="742" dy="12.0">In response to event</tspan><tspan x="742" dy="16.8">application.submitted</tspan></text>
<clipPath id="cc60"><rect x="728" y="871.7999999999998" width="256" height="130.6" rx="8"/></clipPath>
<g clip-path="url(#cc60)">
  <rect x="728" y="871.7999999999998" width="256" height="69.0" fill="#137C69"/>
  <rect x="728" y="940.8" width="256" height="61.6" fill="#F1FFFD"/>
</g>
<text x="742" y="885.8" font-family="Inter, system-ui, sans-serif" font-size="14" font-weight="bold" fill="#FFFFFF"><tspan x="742" dy="14.0">Expedited screening initiated</tspan></text>
<g transform="translate(553.382,-117.863) scale(1.05003)"><path d="M187.405 980.226C187.572 980.226 187.713 980.346 187.733 980.506L187.985 982.273C188.392 982.439 188.766 982.659 189.112 982.926L190.773 982.259C190.806 982.246 190.846 982.24 190.886 982.24C191.006 982.24 191.119 982.299 191.179 982.406L192.512 984.712C192.592 984.859 192.559 985.039 192.433 985.139L191.026 986.24C191.052 986.453 191.072 986.666 191.072 986.893C191.072 987.119 191.052 987.333 191.026 987.546L192.433 988.646C192.559 988.746 192.592 988.926 192.512 989.073L191.179 991.379C191.119 991.486 191.006 991.546 190.893 991.546C190.853 991.546 190.813 991.539 190.773 991.526L189.112 990.86C188.766 991.12 188.392 991.346 187.985 991.513L187.733 993.28C187.712 993.439 187.572 993.559 187.405 993.559H184.739C184.573 993.559 184.432 993.439 184.412 993.28L184.159 991.513C183.753 991.346 183.379 991.126 183.032 990.86L181.372 991.526C181.339 991.539 181.299 991.546 181.259 991.546C181.139 991.546 181.026 991.486 180.966 991.379L179.632 989.073C179.552 988.926 179.585 988.746 179.712 988.646L181.119 987.546C181.093 987.333 181.072 987.113 181.072 986.893C181.072 986.673 181.093 986.453 181.119 986.24L179.712 985.139C179.586 985.039 179.545 984.859 179.632 984.712L180.966 982.406C181.026 982.299 181.139 982.24 181.252 982.24C181.292 982.24 181.332 982.246 181.372 982.259L183.032 982.926C183.379 982.666 183.753 982.439 184.159 982.273L184.412 980.506C184.432 980.346 184.573 980.226 184.739 980.226H187.405ZM185.472 982.459L185.365 983.212L184.659 983.499C184.386 983.613 184.112 983.772 183.825 983.986L183.226 984.439L182.532 984.159L181.686 983.82L181.219 984.626L181.939 985.186L182.532 985.653L182.439 986.406C182.419 986.606 182.405 986.76 182.405 986.893C182.405 987.026 182.419 987.18 182.439 987.386L182.532 988.139L181.939 988.606L181.219 989.166L181.686 989.973L182.532 989.632L183.239 989.346L183.846 989.813C184.112 990.013 184.379 990.166 184.665 990.285L185.372 990.573L185.479 991.326L185.606 992.226H186.539L186.672 991.326L186.779 990.573L187.485 990.285C187.759 990.172 188.032 990.012 188.318 989.799L188.919 989.346L189.612 989.626L190.459 989.966L190.926 989.159L190.205 988.599L189.612 988.132L189.705 987.379C189.725 987.179 189.739 987.033 189.739 986.893C189.739 986.753 189.732 986.612 189.705 986.406L189.612 985.653L190.205 985.186L190.919 984.619L190.452 983.813L189.606 984.153L188.899 984.439L188.292 983.973C188.025 983.773 187.758 983.619 187.472 983.499L186.766 983.212L186.659 982.459L186.532 981.559H185.606L185.472 982.459ZM186.072 984.226C187.546 984.226 188.739 985.42 188.739 986.893C188.739 988.366 187.546 989.559 186.072 989.559C184.599 989.559 183.406 988.366 183.405 986.893C183.405 985.42 184.599 984.226 186.072 984.226ZM186.072 985.559C185.339 985.559 184.739 986.16 184.739 986.893C184.74 987.626 185.339 988.226 186.072 988.226C186.806 988.226 187.405 987.626 187.405 986.893C187.405 986.16 186.806 985.559 186.072 985.559Z" fill="#FFFFFF"/></g>
<text x="760" y="911.4" font-family="Inter, system-ui, sans-serif" font-size="11" font-weight="normal" fill="#FFFFFF"><tspan x="760" dy="11.0">SYSTEM (ELIGIBILITY)</tspan></text>
<text x="742" y="954.8" font-family="Inter, system-ui, sans-serif" font-size="12" font-weight="normal" fill="#0A3A2E"><tspan x="742" dy="12.0">Also initiates Medicaid RTE if</tspan><tspan x="742" dy="16.8">applicable</tspan></text>
<clipPath id="cc61"><rect x="728" y="1014.3999999999999" width="256" height="150.2" rx="8"/></clipPath>
<g clip-path="url(#cc61)">
  <rect x="728" y="1014.3999999999999" width="256" height="88.6" fill="#137C69"/>
  <rect x="728" y="1103.0" width="256" height="61.6" fill="#F1FFFD"/>
</g>
<text x="742" y="1028.4" font-family="Inter, system-ui, sans-serif" font-size="14" font-weight="bold" fill="#FFFFFF"><tspan x="742" dy="14.0">Set isExpedited = true on</tspan><tspan x="742" dy="19.6">application</tspan></text>
<g transform="translate(553.382,44.337) scale(1.05003)"><path d="M187.405 980.226C187.572 980.226 187.713 980.346 187.733 980.506L187.985 982.273C188.392 982.439 188.766 982.659 189.112 982.926L190.773 982.259C190.806 982.246 190.846 982.24 190.886 982.24C191.006 982.24 191.119 982.299 191.179 982.406L192.512 984.712C192.592 984.859 192.559 985.039 192.433 985.139L191.026 986.24C191.052 986.453 191.072 986.666 191.072 986.893C191.072 987.119 191.052 987.333 191.026 987.546L192.433 988.646C192.559 988.746 192.592 988.926 192.512 989.073L191.179 991.379C191.119 991.486 191.006 991.546 190.893 991.546C190.853 991.546 190.813 991.539 190.773 991.526L189.112 990.86C188.766 991.12 188.392 991.346 187.985 991.513L187.733 993.28C187.712 993.439 187.572 993.559 187.405 993.559H184.739C184.573 993.559 184.432 993.439 184.412 993.28L184.159 991.513C183.753 991.346 183.379 991.126 183.032 990.86L181.372 991.526C181.339 991.539 181.299 991.546 181.259 991.546C181.139 991.546 181.026 991.486 180.966 991.379L179.632 989.073C179.552 988.926 179.585 988.746 179.712 988.646L181.119 987.546C181.093 987.333 181.072 987.113 181.072 986.893C181.072 986.673 181.093 986.453 181.119 986.24L179.712 985.139C179.586 985.039 179.545 984.859 179.632 984.712L180.966 982.406C181.026 982.299 181.139 982.24 181.252 982.24C181.292 982.24 181.332 982.246 181.372 982.259L183.032 982.926C183.379 982.666 183.753 982.439 184.159 982.273L184.412 980.506C184.432 980.346 184.573 980.226 184.739 980.226H187.405ZM185.472 982.459L185.365 983.212L184.659 983.499C184.386 983.613 184.112 983.772 183.825 983.986L183.226 984.439L182.532 984.159L181.686 983.82L181.219 984.626L181.939 985.186L182.532 985.653L182.439 986.406C182.419 986.606 182.405 986.76 182.405 986.893C182.405 987.026 182.419 987.18 182.439 987.386L182.532 988.139L181.939 988.606L181.219 989.166L181.686 989.973L182.532 989.632L183.239 989.346L183.846 989.813C184.112 990.013 184.379 990.166 184.665 990.285L185.372 990.573L185.479 991.326L185.606 992.226H186.539L186.672 991.326L186.779 990.573L187.485 990.285C187.759 990.172 188.032 990.012 188.318 989.799L188.919 989.346L189.612 989.626L190.459 989.966L190.926 989.159L190.205 988.599L189.612 988.132L189.705 987.379C189.725 987.179 189.739 987.033 189.739 986.893C189.739 986.753 189.732 986.612 189.705 986.406L189.612 985.653L190.205 985.186L190.919 984.619L190.452 983.813L189.606 984.153L188.899 984.439L188.292 983.973C188.025 983.773 187.758 983.619 187.472 983.499L186.766 983.212L186.659 982.459L186.532 981.559H185.606L185.472 982.459ZM186.072 984.226C187.546 984.226 188.739 985.42 188.739 986.893C188.739 988.366 187.546 989.559 186.072 989.559C184.599 989.559 183.406 988.366 183.405 986.893C183.405 985.42 184.599 984.226 186.072 984.226ZM186.072 985.559C185.339 985.559 184.739 986.16 184.739 986.893C184.74 987.626 185.339 988.226 186.072 988.226C186.806 988.226 187.405 987.626 187.405 986.893C187.405 986.16 186.806 985.559 186.072 985.559Z" fill="#FFFFFF"/></g>
<text x="760" y="1073.6" font-family="Inter, system-ui, sans-serif" font-size="11" font-weight="normal" fill="#FFFFFF"><tspan x="760" dy="11.0">SYSTEM (INTAKE)</tspan></text>
<text x="742" y="1117.0" font-family="Inter, system-ui, sans-serif" font-size="12" font-weight="normal" fill="#0A3A2E"><tspan x="742" dy="12.0">In response to event</tspan><tspan x="742" dy="16.8">eligibility.application.expedited</tspan></text>
<rect x="728" y="1176.6" width="256" height="83.0" rx="8" fill="#FDDA40"/>
<text x="742" y="1190.6" font-family="Inter, system-ui, sans-serif" font-size="13" font-weight="bold" fill="#333333"><tspan x="742" dy="13.0">⚠ Assign expedited SLA track</tspan></text>
<text x="742" y="1214.8" font-family="Inter, system-ui, sans-serif" font-size="11" font-weight="normal" fill="#555555"><tspan x="742" dy="11.0">Expedited SLA type and workflow task</tspan><tspan x="742" dy="15.4">switching not yet designed</tspan></text>
<rect x="728" y="1271.6" width="256" height="119.4" rx="8" fill="#FDDA40"/>
<text x="742" y="1285.6" font-family="Inter, system-ui, sans-serif" font-size="13" font-weight="bold" fill="#333333"><tspan x="742" dy="13.0">⚠ Create RTE verification</tspan><tspan x="742" dy="18.2">record with Medicaid</tspan><tspan x="742" dy="18.2">eligibility outcome</tspan></text>
<text x="742" y="1346.2" font-family="Inter, system-ui, sans-serif" font-size="11" font-weight="normal" fill="#555555"><tspan x="742" dy="11.0">rte verification type not yet defined</tspan><tspan x="742" dy="15.4">in intake contracts</tspan></text>
<clipPath id="cc62"><rect x="728" y="1403" width="256" height="113.8" rx="8"/></clipPath>
<g clip-path="url(#cc62)">
  <rect x="728" y="1403" width="256" height="69.0" fill="#137C69"/>
  <rect x="728" y="1472.0" width="256" height="44.8" fill="#F1FFFD"/>
</g>
<text x="742" y="1417.0" font-family="Inter, system-ui, sans-serif" font-size="14" font-weight="bold" fill="#FFFFFF"><tspan x="742" dy="14.0">Federal checks initiated</tspan></text>
<g transform="translate(553.382,413.337) scale(1.05003)"><path d="M187.405 980.226C187.572 980.226 187.713 980.346 187.733 980.506L187.985 982.273C188.392 982.439 188.766 982.659 189.112 982.926L190.773 982.259C190.806 982.246 190.846 982.24 190.886 982.24C191.006 982.24 191.119 982.299 191.179 982.406L192.512 984.712C192.592 984.859 192.559 985.039 192.433 985.139L191.026 986.24C191.052 986.453 191.072 986.666 191.072 986.893C191.072 987.119 191.052 987.333 191.026 987.546L192.433 988.646C192.559 988.746 192.592 988.926 192.512 989.073L191.179 991.379C191.119 991.486 191.006 991.546 190.893 991.546C190.853 991.546 190.813 991.539 190.773 991.526L189.112 990.86C188.766 991.12 188.392 991.346 187.985 991.513L187.733 993.28C187.712 993.439 187.572 993.559 187.405 993.559H184.739C184.573 993.559 184.432 993.439 184.412 993.28L184.159 991.513C183.753 991.346 183.379 991.126 183.032 990.86L181.372 991.526C181.339 991.539 181.299 991.546 181.259 991.546C181.139 991.546 181.026 991.486 180.966 991.379L179.632 989.073C179.552 988.926 179.585 988.746 179.712 988.646L181.119 987.546C181.093 987.333 181.072 987.113 181.072 986.893C181.072 986.673 181.093 986.453 181.119 986.24L179.712 985.139C179.586 985.039 179.545 984.859 179.632 984.712L180.966 982.406C181.026 982.299 181.139 982.24 181.252 982.24C181.292 982.24 181.332 982.246 181.372 982.259L183.032 982.926C183.379 982.666 183.753 982.439 184.159 982.273L184.412 980.506C184.432 980.346 184.573 980.226 184.739 980.226H187.405ZM185.472 982.459L185.365 983.212L184.659 983.499C184.386 983.613 184.112 983.772 183.825 983.986L183.226 984.439L182.532 984.159L181.686 983.82L181.219 984.626L181.939 985.186L182.532 985.653L182.439 986.406C182.419 986.606 182.405 986.76 182.405 986.893C182.405 987.026 182.419 987.18 182.439 987.386L182.532 988.139L181.939 988.606L181.219 989.166L181.686 989.973L182.532 989.632L183.239 989.346L183.846 989.813C184.112 990.013 184.379 990.166 184.665 990.285L185.372 990.573L185.479 991.326L185.606 992.226H186.539L186.672 991.326L186.779 990.573L187.485 990.285C187.759 990.172 188.032 990.012 188.318 989.799L188.919 989.346L189.612 989.626L190.459 989.966L190.926 989.159L190.205 988.599L189.612 988.132L189.705 987.379C189.725 987.179 189.739 987.033 189.739 986.893C189.739 986.753 189.732 986.612 189.705 986.406L189.612 985.653L190.205 985.186L190.919 984.619L190.452 983.813L189.606 984.153L188.899 984.439L188.292 983.973C188.025 983.773 187.758 983.619 187.472 983.499L186.766 983.212L186.659 982.459L186.532 981.559H185.606L185.472 982.459ZM186.072 984.226C187.546 984.226 188.739 985.42 188.739 986.893C188.739 988.366 187.546 989.559 186.072 989.559C184.599 989.559 183.406 988.366 183.405 986.893C183.405 985.42 184.599 984.226 186.072 984.226ZM186.072 985.559C185.339 985.559 184.739 986.16 184.739 986.893C184.74 987.626 185.339 988.226 186.072 988.226C186.806 988.226 187.405 987.626 187.405 986.893C187.405 986.16 186.806 985.559 186.072 985.559Z" fill="#FFFFFF"/></g>
<text x="760" y="1442.6" font-family="Inter, system-ui, sans-serif" font-size="11" font-weight="normal" fill="#FFFFFF"><tspan x="760" dy="11.0">SYSTEM (DATA_EXCHANGE)</tspan></text>
<text x="742" y="1486.0" font-family="Inter, system-ui, sans-serif" font-size="12" font-weight="normal" fill="#0A3A2E"><tspan x="742" dy="12.0">FDSH, IEVS, SAVE, SSA</tspan></text>
<rect x="728" y="1528.8" width="256" height="116.6" rx="8" fill="#FDDA40"/>
<text x="742" y="1542.8" font-family="Inter, system-ui, sans-serif" font-size="13" font-weight="bold" fill="#333333"><tspan x="742" dy="13.0">⚠ Update verification records</tspan><tspan x="742" dy="18.2">with federal check results</tspan></text>
<text x="742" y="1585.2" font-family="Inter, system-ui, sans-serif" font-size="11" font-weight="normal" fill="#555555"><tspan x="742" dy="11.0">Intake handler for call.completed</tspan><tspan x="742" dy="15.4">updating verifications not yet</tspan><tspan x="742" dy="15.4">designed</tspan></text>
<clipPath id="cc63"><rect x="728" y="1657.3999999999999" width="256" height="130.6" rx="8"/></clipPath>
<g clip-path="url(#cc63)">
  <rect x="728" y="1657.3999999999999" width="256" height="69.0" fill="#137C69"/>
  <rect x="728" y="1726.4" width="256" height="61.6" fill="#F1FFFD"/>
</g>
<text x="742" y="1671.4" font-family="Inter, system-ui, sans-serif" font-size="14" font-weight="bold" fill="#FFFFFF"><tspan x="742" dy="14.0">Person matching initiated</tspan></text>
<g transform="translate(553.382,667.737) scale(1.05003)"><path d="M187.405 980.226C187.572 980.226 187.713 980.346 187.733 980.506L187.985 982.273C188.392 982.439 188.766 982.659 189.112 982.926L190.773 982.259C190.806 982.246 190.846 982.24 190.886 982.24C191.006 982.24 191.119 982.299 191.179 982.406L192.512 984.712C192.592 984.859 192.559 985.039 192.433 985.139L191.026 986.24C191.052 986.453 191.072 986.666 191.072 986.893C191.072 987.119 191.052 987.333 191.026 987.546L192.433 988.646C192.559 988.746 192.592 988.926 192.512 989.073L191.179 991.379C191.119 991.486 191.006 991.546 190.893 991.546C190.853 991.546 190.813 991.539 190.773 991.526L189.112 990.86C188.766 991.12 188.392 991.346 187.985 991.513L187.733 993.28C187.712 993.439 187.572 993.559 187.405 993.559H184.739C184.573 993.559 184.432 993.439 184.412 993.28L184.159 991.513C183.753 991.346 183.379 991.126 183.032 990.86L181.372 991.526C181.339 991.539 181.299 991.546 181.259 991.546C181.139 991.546 181.026 991.486 180.966 991.379L179.632 989.073C179.552 988.926 179.585 988.746 179.712 988.646L181.119 987.546C181.093 987.333 181.072 987.113 181.072 986.893C181.072 986.673 181.093 986.453 181.119 986.24L179.712 985.139C179.586 985.039 179.545 984.859 179.632 984.712L180.966 982.406C181.026 982.299 181.139 982.24 181.252 982.24C181.292 982.24 181.332 982.246 181.372 982.259L183.032 982.926C183.379 982.666 183.753 982.439 184.159 982.273L184.412 980.506C184.432 980.346 184.573 980.226 184.739 980.226H187.405ZM185.472 982.459L185.365 983.212L184.659 983.499C184.386 983.613 184.112 983.772 183.825 983.986L183.226 984.439L182.532 984.159L181.686 983.82L181.219 984.626L181.939 985.186L182.532 985.653L182.439 986.406C182.419 986.606 182.405 986.76 182.405 986.893C182.405 987.026 182.419 987.18 182.439 987.386L182.532 988.139L181.939 988.606L181.219 989.166L181.686 989.973L182.532 989.632L183.239 989.346L183.846 989.813C184.112 990.013 184.379 990.166 184.665 990.285L185.372 990.573L185.479 991.326L185.606 992.226H186.539L186.672 991.326L186.779 990.573L187.485 990.285C187.759 990.172 188.032 990.012 188.318 989.799L188.919 989.346L189.612 989.626L190.459 989.966L190.926 989.159L190.205 988.599L189.612 988.132L189.705 987.379C189.725 987.179 189.739 987.033 189.739 986.893C189.739 986.753 189.732 986.612 189.705 986.406L189.612 985.653L190.205 985.186L190.919 984.619L190.452 983.813L189.606 984.153L188.899 984.439L188.292 983.973C188.025 983.773 187.758 983.619 187.472 983.499L186.766 983.212L186.659 982.459L186.532 981.559H185.606L185.472 982.459ZM186.072 984.226C187.546 984.226 188.739 985.42 188.739 986.893C188.739 988.366 187.546 989.559 186.072 989.559C184.599 989.559 183.406 988.366 183.405 986.893C183.405 985.42 184.599 984.226 186.072 984.226ZM186.072 985.559C185.339 985.559 184.739 986.16 184.739 986.893C184.74 987.626 185.339 988.226 186.072 988.226C186.806 988.226 187.405 987.626 187.405 986.893C187.405 986.16 186.806 985.559 186.072 985.559Z" fill="#FFFFFF"/></g>
<text x="760" y="1697.0" font-family="Inter, system-ui, sans-serif" font-size="11" font-weight="normal" fill="#FFFFFF"><tspan x="760" dy="11.0">SYSTEM (CLIENT_MANAGEMENT)</tspan></text>
<text x="742" y="1740.4" font-family="Inter, system-ui, sans-serif" font-size="12" font-weight="normal" fill="#0A3A2E"><tspan x="742" dy="12.0">In response to event</tspan><tspan x="742" dy="16.8">application.submitted</tspan></text>
<rect x="728" y="1799.9999999999998" width="256" height="119.4" rx="8" fill="#FDDA40"/>
<text x="742" y="1814.0" font-family="Inter, system-ui, sans-serif" font-size="13" font-weight="bold" fill="#333333"><tspan x="742" dy="13.0">⚠ Auto-confirm exact matches;</tspan><tspan x="742" dy="18.2">queue fuzzy matches for</tspan><tspan x="742" dy="18.2">caseworker review</tspan></text>
<text x="742" y="1874.6" font-family="Inter, system-ui, sans-serif" font-size="11" font-weight="normal" fill="#555555"><tspan x="742" dy="11.0">Person match auto-confirmation</tspan><tspan x="742" dy="15.4">behavior not yet designed in intake</tspan></text>
<line x1="996" y1="677.9999999999999" x2="996" y2="1931.3999999999996" stroke="#DDDDDD" stroke-width="1"/>
<clipPath id="cc64"><rect x="1008" y="689.9999999999999" width="256" height="150.2" rx="8"/></clipPath>
<g clip-path="url(#cc64)">
  <rect x="1008" y="689.9999999999999" width="256" height="88.6" fill="#137C69"/>
  <rect x="1008" y="778.6" width="256" height="61.6" fill="#F1FFFD"/>
</g>
<text x="1022" y="704.0" font-family="Inter, system-ui, sans-serif" font-size="14" font-weight="bold" fill="#FFFFFF"><tspan x="1022" dy="14.0">Interview record created and</tspan><tspan x="1022" dy="19.6">linked to application</tspan></text>
<g transform="translate(833.382,-280.063) scale(1.05003)"><path d="M187.405 980.226C187.572 980.226 187.713 980.346 187.733 980.506L187.985 982.273C188.392 982.439 188.766 982.659 189.112 982.926L190.773 982.259C190.806 982.246 190.846 982.24 190.886 982.24C191.006 982.24 191.119 982.299 191.179 982.406L192.512 984.712C192.592 984.859 192.559 985.039 192.433 985.139L191.026 986.24C191.052 986.453 191.072 986.666 191.072 986.893C191.072 987.119 191.052 987.333 191.026 987.546L192.433 988.646C192.559 988.746 192.592 988.926 192.512 989.073L191.179 991.379C191.119 991.486 191.006 991.546 190.893 991.546C190.853 991.546 190.813 991.539 190.773 991.526L189.112 990.86C188.766 991.12 188.392 991.346 187.985 991.513L187.733 993.28C187.712 993.439 187.572 993.559 187.405 993.559H184.739C184.573 993.559 184.432 993.439 184.412 993.28L184.159 991.513C183.753 991.346 183.379 991.126 183.032 990.86L181.372 991.526C181.339 991.539 181.299 991.546 181.259 991.546C181.139 991.546 181.026 991.486 180.966 991.379L179.632 989.073C179.552 988.926 179.585 988.746 179.712 988.646L181.119 987.546C181.093 987.333 181.072 987.113 181.072 986.893C181.072 986.673 181.093 986.453 181.119 986.24L179.712 985.139C179.586 985.039 179.545 984.859 179.632 984.712L180.966 982.406C181.026 982.299 181.139 982.24 181.252 982.24C181.292 982.24 181.332 982.246 181.372 982.259L183.032 982.926C183.379 982.666 183.753 982.439 184.159 982.273L184.412 980.506C184.432 980.346 184.573 980.226 184.739 980.226H187.405ZM185.472 982.459L185.365 983.212L184.659 983.499C184.386 983.613 184.112 983.772 183.825 983.986L183.226 984.439L182.532 984.159L181.686 983.82L181.219 984.626L181.939 985.186L182.532 985.653L182.439 986.406C182.419 986.606 182.405 986.76 182.405 986.893C182.405 987.026 182.419 987.18 182.439 987.386L182.532 988.139L181.939 988.606L181.219 989.166L181.686 989.973L182.532 989.632L183.239 989.346L183.846 989.813C184.112 990.013 184.379 990.166 184.665 990.285L185.372 990.573L185.479 991.326L185.606 992.226H186.539L186.672 991.326L186.779 990.573L187.485 990.285C187.759 990.172 188.032 990.012 188.318 989.799L188.919 989.346L189.612 989.626L190.459 989.966L190.926 989.159L190.205 988.599L189.612 988.132L189.705 987.379C189.725 987.179 189.739 987.033 189.739 986.893C189.739 986.753 189.732 986.612 189.705 986.406L189.612 985.653L190.205 985.186L190.919 984.619L190.452 983.813L189.606 984.153L188.899 984.439L188.292 983.973C188.025 983.773 187.758 983.619 187.472 983.499L186.766 983.212L186.659 982.459L186.532 981.559H185.606L185.472 982.459ZM186.072 984.226C187.546 984.226 188.739 985.42 188.739 986.893C188.739 988.366 187.546 989.559 186.072 989.559C184.599 989.559 183.406 988.366 183.405 986.893C183.405 985.42 184.599 984.226 186.072 984.226ZM186.072 985.559C185.339 985.559 184.739 986.16 184.739 986.893C184.74 987.626 185.339 988.226 186.072 988.226C186.806 988.226 187.405 987.626 187.405 986.893C187.405 986.16 186.806 985.559 186.072 985.559Z" fill="#FFFFFF"/></g>
<text x="1040" y="749.2" font-family="Inter, system-ui, sans-serif" font-size="11" font-weight="normal" fill="#FFFFFF"><tspan x="1040" dy="11.0">SYSTEM (INTAKE)</tspan></text>
<text x="1022" y="792.6" font-family="Inter, system-ui, sans-serif" font-size="12" font-weight="normal" fill="#0A3A2E"><tspan x="1022" dy="12.0">In response to event</tspan><tspan x="1022" dy="16.8">appointment.scheduled</tspan></text>
<line x1="1276" y1="677.9999999999999" x2="1276" y2="1931.3999999999996" stroke="#DDDDDD" stroke-width="1"/>
<line x1="1556" y1="677.9999999999999" x2="1556" y2="1931.3999999999996" stroke="#DDDDDD" stroke-width="1"/>
<line x1="1836" y1="677.9999999999999" x2="1836" y2="1931.3999999999996" stroke="#1A1A1A" stroke-width="3"/>
<clipPath id="cc65"><rect x="1848" y="689.9999999999999" width="256" height="147.4" rx="8"/></clipPath>
<g clip-path="url(#cc65)">
  <rect x="1848" y="689.9999999999999" width="256" height="69.0" fill="#137C69"/>
  <rect x="1848" y="759.0" width="256" height="78.4" fill="#F1FFFD"/>
</g>
<text x="1862" y="704.0" font-family="Inter, system-ui, sans-serif" font-size="14" font-weight="bold" fill="#FFFFFF"><tspan x="1862" dy="14.0">Rules engine invoked</tspan></text>
<g transform="translate(1673.382,-299.663) scale(1.05003)"><path d="M187.405 980.226C187.572 980.226 187.713 980.346 187.733 980.506L187.985 982.273C188.392 982.439 188.766 982.659 189.112 982.926L190.773 982.259C190.806 982.246 190.846 982.24 190.886 982.24C191.006 982.24 191.119 982.299 191.179 982.406L192.512 984.712C192.592 984.859 192.559 985.039 192.433 985.139L191.026 986.24C191.052 986.453 191.072 986.666 191.072 986.893C191.072 987.119 191.052 987.333 191.026 987.546L192.433 988.646C192.559 988.746 192.592 988.926 192.512 989.073L191.179 991.379C191.119 991.486 191.006 991.546 190.893 991.546C190.853 991.546 190.813 991.539 190.773 991.526L189.112 990.86C188.766 991.12 188.392 991.346 187.985 991.513L187.733 993.28C187.712 993.439 187.572 993.559 187.405 993.559H184.739C184.573 993.559 184.432 993.439 184.412 993.28L184.159 991.513C183.753 991.346 183.379 991.126 183.032 990.86L181.372 991.526C181.339 991.539 181.299 991.546 181.259 991.546C181.139 991.546 181.026 991.486 180.966 991.379L179.632 989.073C179.552 988.926 179.585 988.746 179.712 988.646L181.119 987.546C181.093 987.333 181.072 987.113 181.072 986.893C181.072 986.673 181.093 986.453 181.119 986.24L179.712 985.139C179.586 985.039 179.545 984.859 179.632 984.712L180.966 982.406C181.026 982.299 181.139 982.24 181.252 982.24C181.292 982.24 181.332 982.246 181.372 982.259L183.032 982.926C183.379 982.666 183.753 982.439 184.159 982.273L184.412 980.506C184.432 980.346 184.573 980.226 184.739 980.226H187.405ZM185.472 982.459L185.365 983.212L184.659 983.499C184.386 983.613 184.112 983.772 183.825 983.986L183.226 984.439L182.532 984.159L181.686 983.82L181.219 984.626L181.939 985.186L182.532 985.653L182.439 986.406C182.419 986.606 182.405 986.76 182.405 986.893C182.405 987.026 182.419 987.18 182.439 987.386L182.532 988.139L181.939 988.606L181.219 989.166L181.686 989.973L182.532 989.632L183.239 989.346L183.846 989.813C184.112 990.013 184.379 990.166 184.665 990.285L185.372 990.573L185.479 991.326L185.606 992.226H186.539L186.672 991.326L186.779 990.573L187.485 990.285C187.759 990.172 188.032 990.012 188.318 989.799L188.919 989.346L189.612 989.626L190.459 989.966L190.926 989.159L190.205 988.599L189.612 988.132L189.705 987.379C189.725 987.179 189.739 987.033 189.739 986.893C189.739 986.753 189.732 986.612 189.705 986.406L189.612 985.653L190.205 985.186L190.919 984.619L190.452 983.813L189.606 984.153L188.899 984.439L188.292 983.973C188.025 983.773 187.758 983.619 187.472 983.499L186.766 983.212L186.659 982.459L186.532 981.559H185.606L185.472 982.459ZM186.072 984.226C187.546 984.226 188.739 985.42 188.739 986.893C188.739 988.366 187.546 989.559 186.072 989.559C184.599 989.559 183.406 988.366 183.405 986.893C183.405 985.42 184.599 984.226 186.072 984.226ZM186.072 985.559C185.339 985.559 184.739 986.16 184.739 986.893C184.74 987.626 185.339 988.226 186.072 988.226C186.806 988.226 187.405 987.626 187.405 986.893C187.405 986.16 186.806 985.559 186.072 985.559Z" fill="#FFFFFF"/></g>
<text x="1880" y="729.6" font-family="Inter, system-ui, sans-serif" font-size="11" font-weight="normal" fill="#FFFFFF"><tspan x="1880" dy="11.0">SYSTEM (ELIGIBILITY)</tspan></text>
<text x="1862" y="773.0" font-family="Inter, system-ui, sans-serif" font-size="12" font-weight="normal" fill="#0A3A2E"><tspan x="1862" dy="12.0">Income and expense calculations</tspan><tspan x="1862" dy="16.8">against household data, per</tspan><tspan x="1862" dy="16.8">program</tspan></text>
<line x1="2116" y1="677.9999999999999" x2="2116" y2="1931.3999999999996" stroke="#DDDDDD" stroke-width="1"/>
<line x1="316" y1="1931.3999999999996" x2="2396" y2="1931.3999999999996" stroke="#CCCCCC" stroke-width="1"/>
<text x="376" y="2235.0999999999995" text-anchor="middle" font-family="Inter, system-ui, sans-serif" font-size="11" font-weight="bold" fill="#555555">Regulations</text>
<line x1="436" y1="1931.3999999999996" x2="436" y2="2530.7999999999993" stroke="#DDDDDD" stroke-width="1"/>
<clipPath id="cc66"><rect x="448" y="1943.3999999999996" width="256" height="133.4" rx="8"/></clipPath>
<g clip-path="url(#cc66)">
  <rect x="448" y="1943.3999999999996" width="256" height="88.6" fill="#EDD7CD"/>
  <rect x="448" y="2032.0" width="256" height="44.8" fill="#F8F6F5"/>
</g>
<text x="462" y="1957.4" font-family="Inter, system-ui, sans-serif" font-size="14" font-weight="bold" fill="#3D2B0E"><tspan x="462" dy="14.0">SNAP: 30-day processing clock</tspan><tspan x="462" dy="19.6">starts</tspan></text>
<g transform="translate(273.229,-1401.543) scale(1.05026)"><path d="M182.737 3247.23H181.404V3251.89H182.737V3247.23ZM186.737 3247.23H185.404V3251.89H186.737V3247.23ZM192.404 3253.23H179.737V3254.56H192.404V3253.23ZM190.737 3247.23H189.404V3251.89H190.737V3247.23ZM186.071 3242.73L189.544 3244.56H182.597L186.071 3242.73ZM186.071 3241.23L179.737 3244.56V3245.89H192.404V3244.56L186.071 3241.23Z" fill="#3D2B0E"/></g>
<text x="480" y="2002.6" font-family="Inter, system-ui, sans-serif" font-size="11" font-weight="normal" fill="#3D2B0E"><tspan x="480" dy="11.0">POLICY</tspan></text>
<text x="462" y="2046.0" font-family="Inter, system-ui, sans-serif" font-size="12" font-weight="normal" fill="#3D2B0E"><tspan x="462" dy="12.0">7 CFR § 273.2(g)(1)</tspan></text>
<clipPath id="cc67"><rect x="448" y="2088.7999999999997" width="256" height="130.6" rx="8"/></clipPath>
<g clip-path="url(#cc67)">
  <rect x="448" y="2088.7999999999997" width="256" height="69.0" fill="#EDD7CD"/>
  <rect x="448" y="2157.8" width="256" height="61.6" fill="#F8F6F5"/>
</g>
<text x="462" y="2102.8" font-family="Inter, system-ui, sans-serif" font-size="14" font-weight="bold" fill="#3D2B0E"><tspan x="462" dy="14.0">Expedited SNAP: 7-day clock</tspan></text>
<g transform="translate(273.229,-1275.743) scale(1.05026)"><path d="M182.737 3247.23H181.404V3251.89H182.737V3247.23ZM186.737 3247.23H185.404V3251.89H186.737V3247.23ZM192.404 3253.23H179.737V3254.56H192.404V3253.23ZM190.737 3247.23H189.404V3251.89H190.737V3247.23ZM186.071 3242.73L189.544 3244.56H182.597L186.071 3242.73ZM186.071 3241.23L179.737 3244.56V3245.89H192.404V3244.56L186.071 3241.23Z" fill="#3D2B0E"/></g>
<text x="480" y="2128.4" font-family="Inter, system-ui, sans-serif" font-size="11" font-weight="normal" fill="#3D2B0E"><tspan x="480" dy="11.0">POLICY</tspan></text>
<text x="462" y="2171.8" font-family="Inter, system-ui, sans-serif" font-size="12" font-weight="normal" fill="#3D2B0E"><tspan x="462" dy="12.0">If household meets expedited</tspan><tspan x="462" dy="16.8">criteria — 7 CFR § 273.2(i)</tspan></text>
<clipPath id="cc68"><rect x="448" y="2231.3999999999996" width="256" height="147.4" rx="8"/></clipPath>
<g clip-path="url(#cc68)">
  <rect x="448" y="2231.3999999999996" width="256" height="69.0" fill="#EDD7CD"/>
  <rect x="448" y="2300.4" width="256" height="78.4" fill="#F8F6F5"/>
</g>
<text x="462" y="2245.4" font-family="Inter, system-ui, sans-serif" font-size="14" font-weight="bold" fill="#3D2B0E"><tspan x="462" dy="14.0">Medicaid: 45-day clock starts</tspan></text>
<g transform="translate(273.229,-1133.143) scale(1.05026)"><path d="M182.737 3247.23H181.404V3251.89H182.737V3247.23ZM186.737 3247.23H185.404V3251.89H186.737V3247.23ZM192.404 3253.23H179.737V3254.56H192.404V3253.23ZM190.737 3247.23H189.404V3251.89H190.737V3247.23ZM186.071 3242.73L189.544 3244.56H182.597L186.071 3242.73ZM186.071 3241.23L179.737 3244.56V3245.89H192.404V3244.56L186.071 3241.23Z" fill="#3D2B0E"/></g>
<text x="480" y="2271.0" font-family="Inter, system-ui, sans-serif" font-size="11" font-weight="normal" fill="#3D2B0E"><tspan x="480" dy="11.0">POLICY</tspan></text>
<text x="462" y="2314.4" font-family="Inter, system-ui, sans-serif" font-size="12" font-weight="normal" fill="#3D2B0E"><tspan x="462" dy="12.0">90 days if disability</tspan><tspan x="462" dy="16.8">determination needed — 42 CFR §</tspan><tspan x="462" dy="16.8">435.912</tspan></text>
<line x1="716" y1="1931.3999999999996" x2="716" y2="2530.7999999999993" stroke="#1A1A1A" stroke-width="3"/>
<line x1="996" y1="1931.3999999999996" x2="996" y2="2530.7999999999993" stroke="#DDDDDD" stroke-width="1"/>
<line x1="1276" y1="1931.3999999999996" x2="1276" y2="2530.7999999999993" stroke="#DDDDDD" stroke-width="1"/>
<clipPath id="cc69"><rect x="1288" y="1943.3999999999996" width="256" height="200.6" rx="8"/></clipPath>
<g clip-path="url(#cc69)">
  <rect x="1288" y="1943.3999999999996" width="256" height="88.6" fill="#EDD7CD"/>
  <rect x="1288" y="2032.0" width="256" height="112.0" fill="#F8F6F5"/>
</g>
<text x="1302" y="1957.4" font-family="Inter, system-ui, sans-serif" font-size="14" font-weight="bold" fill="#3D2B0E"><tspan x="1302" dy="14.0">Federal verifications</tspan><tspan x="1302" dy="19.6">required</tspan></text>
<g transform="translate(1113.229,-1401.543) scale(1.05026)"><path d="M182.737 3247.23H181.404V3251.89H182.737V3247.23ZM186.737 3247.23H185.404V3251.89H186.737V3247.23ZM192.404 3253.23H179.737V3254.56H192.404V3253.23ZM190.737 3247.23H189.404V3251.89H190.737V3247.23ZM186.071 3242.73L189.544 3244.56H182.597L186.071 3242.73ZM186.071 3241.23L179.737 3244.56V3245.89H192.404V3244.56L186.071 3241.23Z" fill="#3D2B0E"/></g>
<text x="1320" y="2002.6" font-family="Inter, system-ui, sans-serif" font-size="11" font-weight="normal" fill="#3D2B0E"><tspan x="1320" dy="11.0">POLICY</tspan></text>
<text x="1302" y="2046.0" font-family="Inter, system-ui, sans-serif" font-size="12" font-weight="normal" fill="#3D2B0E"><tspan x="1302" dy="12.0">FDSH (citizenship), SAVE</tspan><tspan x="1302" dy="16.8">(immigration), IEVS (income, SNAP</tspan><tspan x="1302" dy="16.8">only), SSA (SSN), RTE (existing</tspan><tspan x="1302" dy="16.8">coverage, Medicaid only) — 42</tspan><tspan x="1302" dy="16.8">U.S.C. § 1320b-7</tspan></text>
<clipPath id="cc70"><rect x="1288" y="2155.9999999999995" width="256" height="220.2" rx="8"/></clipPath>
<g clip-path="url(#cc70)">
  <rect x="1288" y="2155.9999999999995" width="256" height="108.2" fill="#EDD7CD"/>
  <rect x="1288" y="2264.2" width="256" height="112.0" fill="#F8F6F5"/>
</g>
<text x="1302" y="2170.0" font-family="Inter, system-ui, sans-serif" font-size="14" font-weight="bold" fill="#3D2B0E"><tspan x="1302" dy="14.0">Medicaid: electronic</tspan><tspan x="1302" dy="19.6">verification before</tspan><tspan x="1302" dy="19.6">requesting paper documents</tspan></text>
<g transform="translate(1113.229,-1169.343) scale(1.05026)"><path d="M182.737 3247.23H181.404V3251.89H182.737V3247.23ZM186.737 3247.23H185.404V3251.89H186.737V3247.23ZM192.404 3253.23H179.737V3254.56H192.404V3253.23ZM190.737 3247.23H189.404V3251.89H190.737V3247.23ZM186.071 3242.73L189.544 3244.56H182.597L186.071 3242.73ZM186.071 3241.23L179.737 3244.56V3245.89H192.404V3244.56L186.071 3241.23Z" fill="#3D2B0E"/></g>
<text x="1320" y="2234.8" font-family="Inter, system-ui, sans-serif" font-size="11" font-weight="normal" fill="#3D2B0E"><tspan x="1320" dy="11.0">POLICY</tspan></text>
<text x="1302" y="2278.2" font-family="Inter, system-ui, sans-serif" font-size="12" font-weight="normal" fill="#3D2B0E"><tspan x="1302" dy="12.0">Ex parte rule — electronic checks</tspan><tspan x="1302" dy="16.8">must be attempted first; paper</tspan><tspan x="1302" dy="16.8">documents can only be requested</tspan><tspan x="1302" dy="16.8">when checks return inconclusive —</tspan><tspan x="1302" dy="16.8">42 CFR § 435.911</tspan></text>
<line x1="1556" y1="1931.3999999999996" x2="1556" y2="2530.7999999999993" stroke="#DDDDDD" stroke-width="1"/>
<clipPath id="cc71"><rect x="1568" y="1943.3999999999996" width="256" height="150.2" rx="8"/></clipPath>
<g clip-path="url(#cc71)">
  <rect x="1568" y="1943.3999999999996" width="256" height="88.6" fill="#EDD7CD"/>
  <rect x="1568" y="2032.0" width="256" height="61.6" fill="#F8F6F5"/>
</g>
<text x="1582" y="1957.4" font-family="Inter, system-ui, sans-serif" font-size="14" font-weight="bold" fill="#3D2B0E"><tspan x="1582" dy="14.0">SNAP: Interview required</tspan><tspan x="1582" dy="19.6">before determination</tspan></text>
<g transform="translate(1393.229,-1401.543) scale(1.05026)"><path d="M182.737 3247.23H181.404V3251.89H182.737V3247.23ZM186.737 3247.23H185.404V3251.89H186.737V3247.23ZM192.404 3253.23H179.737V3254.56H192.404V3253.23ZM190.737 3247.23H189.404V3251.89H190.737V3247.23ZM186.071 3242.73L189.544 3244.56H182.597L186.071 3242.73ZM186.071 3241.23L179.737 3244.56V3245.89H192.404V3244.56L186.071 3241.23Z" fill="#3D2B0E"/></g>
<text x="1600" y="2002.6" font-family="Inter, system-ui, sans-serif" font-size="11" font-weight="normal" fill="#3D2B0E"><tspan x="1600" dy="11.0">POLICY</tspan></text>
<text x="1582" y="2046.0" font-family="Inter, system-ui, sans-serif" font-size="12" font-weight="normal" fill="#3D2B0E"><tspan x="1582" dy="12.0">May be waived by state policy — 7</tspan><tspan x="1582" dy="16.8">CFR § 273.2(e)</tspan></text>
<clipPath id="cc72"><rect x="1568" y="2105.5999999999995" width="256" height="200.6" rx="8"/></clipPath>
<g clip-path="url(#cc72)">
  <rect x="1568" y="2105.5999999999995" width="256" height="88.6" fill="#EDD7CD"/>
  <rect x="1568" y="2194.2" width="256" height="112.0" fill="#F8F6F5"/>
</g>
<text x="1582" y="2119.6" font-family="Inter, system-ui, sans-serif" font-size="14" font-weight="bold" fill="#3D2B0E"><tspan x="1582" dy="14.0">H.R.1: SNAP ABAWD work</tspan><tspan x="1582" dy="19.6">requirement expansion</tspan></text>
<g transform="translate(1393.229,-1239.343) scale(1.05026)"><path d="M182.737 3247.23H181.404V3251.89H182.737V3247.23ZM186.737 3247.23H185.404V3251.89H186.737V3247.23ZM192.404 3253.23H179.737V3254.56H192.404V3253.23ZM190.737 3247.23H189.404V3251.89H190.737V3247.23ZM186.071 3242.73L189.544 3244.56H182.597L186.071 3242.73ZM186.071 3241.23L179.737 3244.56V3245.89H192.404V3244.56L186.071 3241.23Z" fill="#3D2B0E"/></g>
<text x="1600" y="2164.8" font-family="Inter, system-ui, sans-serif" font-size="11" font-weight="normal" fill="#3D2B0E"><tspan x="1600" dy="11.0">POLICY</tspan></text>
<text x="1582" y="2208.2" font-family="Inter, system-ui, sans-serif" font-size="12" font-weight="normal" fill="#3D2B0E"><tspan x="1582" dy="12.0">Expands age range subject to ABAWD</tspan><tspan x="1582" dy="16.8">work requirements; adds parental</tspan><tspan x="1582" dy="16.8">work requirements for adults with</tspan><tspan x="1582" dy="16.8">children above the age threshold —</tspan><tspan x="1582" dy="16.8">H.R.1 (pending)</tspan></text>
<clipPath id="cc73"><rect x="1568" y="2318.1999999999994" width="256" height="200.6" rx="8"/></clipPath>
<g clip-path="url(#cc73)">
  <rect x="1568" y="2318.1999999999994" width="256" height="88.6" fill="#EDD7CD"/>
  <rect x="1568" y="2406.8" width="256" height="112.0" fill="#F8F6F5"/>
</g>
<text x="1582" y="2332.2" font-family="Inter, system-ui, sans-serif" font-size="14" font-weight="bold" fill="#3D2B0E"><tspan x="1582" dy="14.0">H.R.1: Medicaid community</tspan><tspan x="1582" dy="19.6">engagement requirement</tspan></text>
<g transform="translate(1393.229,-1026.743) scale(1.05026)"><path d="M182.737 3247.23H181.404V3251.89H182.737V3247.23ZM186.737 3247.23H185.404V3251.89H186.737V3247.23ZM192.404 3253.23H179.737V3254.56H192.404V3253.23ZM190.737 3247.23H189.404V3251.89H190.737V3247.23ZM186.071 3242.73L189.544 3244.56H182.597L186.071 3242.73ZM186.071 3241.23L179.737 3244.56V3245.89H192.404V3244.56L186.071 3241.23Z" fill="#3D2B0E"/></g>
<text x="1600" y="2377.4" font-family="Inter, system-ui, sans-serif" font-size="11" font-weight="normal" fill="#3D2B0E"><tspan x="1600" dy="11.0">POLICY</tspan></text>
<text x="1582" y="2420.8" font-family="Inter, system-ui, sans-serif" font-size="12" font-weight="normal" fill="#3D2B0E"><tspan x="1582" dy="12.0">Adults required to demonstrate</tspan><tspan x="1582" dy="16.8">work, volunteering, caregiving, or</tspan><tspan x="1582" dy="16.8">education hours to maintain</tspan><tspan x="1582" dy="16.8">Medicaid eligibility — H.R.1</tspan><tspan x="1582" dy="16.8">(pending)</tspan></text>
<line x1="1836" y1="1931.3999999999996" x2="1836" y2="2530.7999999999993" stroke="#1A1A1A" stroke-width="3"/>
<clipPath id="cc74"><rect x="1848" y="1943.3999999999996" width="256" height="133.4" rx="8"/></clipPath>
<g clip-path="url(#cc74)">
  <rect x="1848" y="1943.3999999999996" width="256" height="88.6" fill="#EDD7CD"/>
  <rect x="1848" y="2032.0" width="256" height="44.8" fill="#F8F6F5"/>
</g>
<text x="1862" y="1957.4" font-family="Inter, system-ui, sans-serif" font-size="14" font-weight="bold" fill="#3D2B0E"><tspan x="1862" dy="14.0">SNAP: Determination within 30</tspan><tspan x="1862" dy="19.6">days (7 if expedited)</tspan></text>
<g transform="translate(1673.229,-1401.543) scale(1.05026)"><path d="M182.737 3247.23H181.404V3251.89H182.737V3247.23ZM186.737 3247.23H185.404V3251.89H186.737V3247.23ZM192.404 3253.23H179.737V3254.56H192.404V3253.23ZM190.737 3247.23H189.404V3251.89H190.737V3247.23ZM186.071 3242.73L189.544 3244.56H182.597L186.071 3242.73ZM186.071 3241.23L179.737 3244.56V3245.89H192.404V3244.56L186.071 3241.23Z" fill="#3D2B0E"/></g>
<text x="1880" y="2002.6" font-family="Inter, system-ui, sans-serif" font-size="11" font-weight="normal" fill="#3D2B0E"><tspan x="1880" dy="11.0">POLICY</tspan></text>
<text x="1862" y="2046.0" font-family="Inter, system-ui, sans-serif" font-size="12" font-weight="normal" fill="#3D2B0E"><tspan x="1862" dy="12.0">7 CFR § 273.2(g)</tspan></text>
<clipPath id="cc75"><rect x="1848" y="2088.7999999999997" width="256" height="133.4" rx="8"/></clipPath>
<g clip-path="url(#cc75)">
  <rect x="1848" y="2088.7999999999997" width="256" height="88.6" fill="#EDD7CD"/>
  <rect x="1848" y="2177.4" width="256" height="44.8" fill="#F8F6F5"/>
</g>
<text x="1862" y="2102.8" font-family="Inter, system-ui, sans-serif" font-size="14" font-weight="bold" fill="#3D2B0E"><tspan x="1862" dy="14.0">Medicaid: Determination</tspan><tspan x="1862" dy="19.6">within 45 days</tspan></text>
<g transform="translate(1673.229,-1256.143) scale(1.05026)"><path d="M182.737 3247.23H181.404V3251.89H182.737V3247.23ZM186.737 3247.23H185.404V3251.89H186.737V3247.23ZM192.404 3253.23H179.737V3254.56H192.404V3253.23ZM190.737 3247.23H189.404V3251.89H190.737V3247.23ZM186.071 3242.73L189.544 3244.56H182.597L186.071 3242.73ZM186.071 3241.23L179.737 3244.56V3245.89H192.404V3244.56L186.071 3241.23Z" fill="#3D2B0E"/></g>
<text x="1880" y="2148.0" font-family="Inter, system-ui, sans-serif" font-size="11" font-weight="normal" fill="#3D2B0E"><tspan x="1880" dy="11.0">POLICY</tspan></text>
<text x="1862" y="2191.4" font-family="Inter, system-ui, sans-serif" font-size="12" font-weight="normal" fill="#3D2B0E"><tspan x="1862" dy="12.0">42 CFR § 435.912</tspan></text>
<line x1="2116" y1="1931.3999999999996" x2="2116" y2="2530.7999999999993" stroke="#DDDDDD" stroke-width="1"/>
<clipPath id="cc76"><rect x="2128" y="1943.3999999999996" width="256" height="130.6" rx="8"/></clipPath>
<g clip-path="url(#cc76)">
  <rect x="2128" y="1943.3999999999996" width="256" height="69.0" fill="#EDD7CD"/>
  <rect x="2128" y="2012.4" width="256" height="61.6" fill="#F8F6F5"/>
</g>
<text x="2142" y="1957.4" font-family="Inter, system-ui, sans-serif" font-size="14" font-weight="bold" fill="#3D2B0E"><tspan x="2142" dy="14.0">Notice of Action required</tspan></text>
<g transform="translate(1953.229,-1421.143) scale(1.05026)"><path d="M182.737 3247.23H181.404V3251.89H182.737V3247.23ZM186.737 3247.23H185.404V3251.89H186.737V3247.23ZM192.404 3253.23H179.737V3254.56H192.404V3253.23ZM190.737 3247.23H189.404V3251.89H190.737V3247.23ZM186.071 3242.73L189.544 3244.56H182.597L186.071 3242.73ZM186.071 3241.23L179.737 3244.56V3245.89H192.404V3244.56L186.071 3241.23Z" fill="#3D2B0E"/></g>
<text x="2160" y="1983.0" font-family="Inter, system-ui, sans-serif" font-size="11" font-weight="normal" fill="#3D2B0E"><tspan x="2160" dy="11.0">POLICY</tspan></text>
<text x="2142" y="2026.4" font-family="Inter, system-ui, sans-serif" font-size="12" font-weight="normal" fill="#3D2B0E"><tspan x="2142" dy="12.0">Adverse action notice required for</tspan><tspan x="2142" dy="16.8">denials and closures</tspan></text>
<line x1="316" y1="2530.7999999999993" x2="2396" y2="2530.7999999999993" stroke="#CCCCCC" stroke-width="1"/>
<text x="376" y="2783.7999999999993" text-anchor="middle" font-family="Inter, system-ui, sans-serif" font-size="11" font-weight="bold" fill="#555555">Events</text>
<line x1="436" y1="2530.7999999999993" x2="436" y2="3028.7999999999993" stroke="#DDDDDD" stroke-width="1"/>
<line x1="716" y1="2530.7999999999993" x2="716" y2="3028.7999999999993" stroke="#1A1A1A" stroke-width="3"/>
<clipPath id="cc77"><rect x="728" y="2542.7999999999993" width="256" height="69.0" rx="8"/></clipPath>
<g clip-path="url(#cc77)">
  <rect x="728" y="2542.7999999999993" width="256" height="69.0" fill="#2E6276"/>
</g>
<text x="742" y="2556.8" font-family="Inter, system-ui, sans-serif" font-size="14" font-weight="bold" fill="#FFFFFF"><tspan x="742" dy="14.0">application.submitted</tspan></text>
<g transform="translate(742.000,2582.400) scale(0.58333)"><path d="M7 2v11h3v9l7-12h-4l4-8z" fill="#FFFFFF"/></g>
<text x="760" y="2582.4" font-family="Inter, system-ui, sans-serif" font-size="11" font-weight="normal" fill="#FFFFFF"><tspan x="760" dy="11.0">EVENT (INTAKE)</tspan></text>
<clipPath id="cc78"><rect x="728" y="2623.7999999999993" width="256" height="69.0" rx="8"/></clipPath>
<g clip-path="url(#cc78)">
  <rect x="728" y="2623.7999999999993" width="256" height="69.0" fill="#2E6276"/>
</g>
<text x="742" y="2637.8" font-family="Inter, system-ui, sans-serif" font-size="14" font-weight="bold" fill="#FFFFFF"><tspan x="742" dy="14.0">eligibility.application.expedited</tspan></text>
<g transform="translate(742.000,2663.400) scale(0.58333)"><path d="M7 2v11h3v9l7-12h-4l4-8z" fill="#FFFFFF"/></g>
<text x="760" y="2663.4" font-family="Inter, system-ui, sans-serif" font-size="11" font-weight="normal" fill="#FFFFFF"><tspan x="760" dy="11.0">EVENT (ELIGIBILITY)</tspan></text>
<clipPath id="cc79"><rect x="728" y="2704.7999999999993" width="256" height="69.0" rx="8"/></clipPath>
<g clip-path="url(#cc79)">
  <rect x="728" y="2704.7999999999993" width="256" height="69.0" fill="#2E6276"/>
</g>
<text x="742" y="2718.8" font-family="Inter, system-ui, sans-serif" font-size="14" font-weight="bold" fill="#FFFFFF"><tspan x="742" dy="14.0">application.expedited_flagged</tspan></text>
<g transform="translate(742.000,2744.400) scale(0.58333)"><path d="M7 2v11h3v9l7-12h-4l4-8z" fill="#FFFFFF"/></g>
<text x="760" y="2744.4" font-family="Inter, system-ui, sans-serif" font-size="11" font-weight="normal" fill="#FFFFFF"><tspan x="760" dy="11.0">EVENT (INTAKE)</tspan></text>
<clipPath id="cc80"><rect x="728" y="2785.7999999999993" width="256" height="69.0" rx="8"/></clipPath>
<g clip-path="url(#cc80)">
  <rect x="728" y="2785.7999999999993" width="256" height="69.0" fill="#2E6276"/>
</g>
<text x="742" y="2799.8" font-family="Inter, system-ui, sans-serif" font-size="14" font-weight="bold" fill="#FFFFFF"><tspan x="742" dy="14.0">eligibility.rte_completed</tspan></text>
<g transform="translate(742.000,2825.400) scale(0.58333)"><path d="M7 2v11h3v9l7-12h-4l4-8z" fill="#FFFFFF"/></g>
<text x="760" y="2825.4" font-family="Inter, system-ui, sans-serif" font-size="11" font-weight="normal" fill="#FFFFFF"><tspan x="760" dy="11.0">EVENT (ELIGIBILITY)</tspan></text>
<clipPath id="cc81"><rect x="728" y="2866.7999999999993" width="256" height="69.0" rx="8"/></clipPath>
<g clip-path="url(#cc81)">
  <rect x="728" y="2866.7999999999993" width="256" height="69.0" fill="#2E6276"/>
</g>
<text x="742" y="2880.8" font-family="Inter, system-ui, sans-serif" font-size="14" font-weight="bold" fill="#FFFFFF"><tspan x="742" dy="14.0">call.completed</tspan></text>
<g transform="translate(742.000,2906.400) scale(0.58333)"><path d="M7 2v11h3v9l7-12h-4l4-8z" fill="#FFFFFF"/></g>
<text x="760" y="2906.4" font-family="Inter, system-ui, sans-serif" font-size="11" font-weight="normal" fill="#FFFFFF"><tspan x="760" dy="11.0">EVENT (DATA_EXCHANGE)</tspan></text>
<clipPath id="cc82"><rect x="728" y="2947.7999999999993" width="256" height="69.0" rx="8"/></clipPath>
<g clip-path="url(#cc82)">
  <rect x="728" y="2947.7999999999993" width="256" height="69.0" fill="#2E6276"/>
</g>
<text x="742" y="2961.8" font-family="Inter, system-ui, sans-serif" font-size="14" font-weight="bold" fill="#FFFFFF"><tspan x="742" dy="14.0">person.match_resolved</tspan></text>
<g transform="translate(742.000,2987.400) scale(0.58333)"><path d="M7 2v11h3v9l7-12h-4l4-8z" fill="#FFFFFF"/></g>
<text x="760" y="2987.4" font-family="Inter, system-ui, sans-serif" font-size="11" font-weight="normal" fill="#FFFFFF"><tspan x="760" dy="11.0">EVENT (CLIENT_MANAGEMENT)</tspan></text>
<line x1="996" y1="2530.7999999999993" x2="996" y2="3028.7999999999993" stroke="#DDDDDD" stroke-width="1"/>
<clipPath id="cc83"><rect x="1008" y="2542.7999999999993" width="256" height="130.6" rx="8"/></clipPath>
<g clip-path="url(#cc83)">
  <rect x="1008" y="2542.7999999999993" width="256" height="69.0" fill="#2E6276"/>
  <rect x="1008" y="2611.8" width="256" height="61.6" fill="#E7F2F5"/>
</g>
<text x="1022" y="2556.8" font-family="Inter, system-ui, sans-serif" font-size="14" font-weight="bold" fill="#FFFFFF"><tspan x="1022" dy="14.0">task.claimed</tspan></text>
<g transform="translate(1022.000,2582.400) scale(0.58333)"><path d="M7 2v11h3v9l7-12h-4l4-8z" fill="#FFFFFF"/></g>
<text x="1040" y="2582.4" font-family="Inter, system-ui, sans-serif" font-size="11" font-weight="normal" fill="#FFFFFF"><tspan x="1040" dy="11.0">EVENT (WORKFLOW)</tspan></text>
<text x="1022" y="2625.8" font-family="Inter, system-ui, sans-serif" font-size="12" font-weight="normal" fill="#0A2E34"><tspan x="1022" dy="12.0">Application transitions to</tspan><tspan x="1022" dy="16.8">under_review</tspan></text>
<clipPath id="cc84"><rect x="1008" y="2685.399999999999" width="256" height="69.0" rx="8"/></clipPath>
<g clip-path="url(#cc84)">
  <rect x="1008" y="2685.399999999999" width="256" height="69.0" fill="#2E6276"/>
</g>
<text x="1022" y="2699.4" font-family="Inter, system-ui, sans-serif" font-size="14" font-weight="bold" fill="#FFFFFF"><tspan x="1022" dy="14.0">appointment.scheduled</tspan></text>
<g transform="translate(1022.000,2725.000) scale(0.58333)"><path d="M7 2v11h3v9l7-12h-4l4-8z" fill="#FFFFFF"/></g>
<text x="1040" y="2725.0" font-family="Inter, system-ui, sans-serif" font-size="11" font-weight="normal" fill="#FFFFFF"><tspan x="1040" dy="11.0">EVENT (SCHEDULING)</tspan></text>
<line x1="1276" y1="2530.7999999999993" x2="1276" y2="3028.7999999999993" stroke="#DDDDDD" stroke-width="1"/>
<clipPath id="cc85"><rect x="1288" y="2542.7999999999993" width="256" height="69.0" rx="8"/></clipPath>
<g clip-path="url(#cc85)">
  <rect x="1288" y="2542.7999999999993" width="256" height="69.0" fill="#2E6276"/>
</g>
<text x="1302" y="2556.8" font-family="Inter, system-ui, sans-serif" font-size="14" font-weight="bold" fill="#FFFFFF"><tspan x="1302" dy="14.0">call.completed</tspan></text>
<g transform="translate(1302.000,2582.400) scale(0.58333)"><path d="M7 2v11h3v9l7-12h-4l4-8z" fill="#FFFFFF"/></g>
<text x="1320" y="2582.4" font-family="Inter, system-ui, sans-serif" font-size="11" font-weight="normal" fill="#FFFFFF"><tspan x="1320" dy="11.0">EVENT (DATA_EXCHANGE)</tspan></text>
<line x1="1556" y1="2530.7999999999993" x2="1556" y2="3028.7999999999993" stroke="#DDDDDD" stroke-width="1"/>
<clipPath id="cc86"><rect x="1568" y="2542.7999999999993" width="256" height="113.8" rx="8"/></clipPath>
<g clip-path="url(#cc86)">
  <rect x="1568" y="2542.7999999999993" width="256" height="69.0" fill="#2E6276"/>
  <rect x="1568" y="2611.8" width="256" height="44.8" fill="#E7F2F5"/>
</g>
<text x="1582" y="2556.8" font-family="Inter, system-ui, sans-serif" font-size="14" font-weight="bold" fill="#FFFFFF"><tspan x="1582" dy="14.0">appointment.completed</tspan></text>
<g transform="translate(1582.000,2582.400) scale(0.58333)"><path d="M7 2v11h3v9l7-12h-4l4-8z" fill="#FFFFFF"/></g>
<text x="1600" y="2582.4" font-family="Inter, system-ui, sans-serif" font-size="11" font-weight="normal" fill="#FFFFFF"><tspan x="1600" dy="11.0">EVENT (SCHEDULING)</tspan></text>
<text x="1582" y="2625.8" font-family="Inter, system-ui, sans-serif" font-size="12" font-weight="normal" fill="#0A2E34"><tspan x="1582" dy="12.0">Interview outcome recorded</tspan></text>
<line x1="1836" y1="2530.7999999999993" x2="1836" y2="3028.7999999999993" stroke="#1A1A1A" stroke-width="3"/>
<clipPath id="cc87"><rect x="1848" y="2542.7999999999993" width="256" height="130.6" rx="8"/></clipPath>
<g clip-path="url(#cc87)">
  <rect x="1848" y="2542.7999999999993" width="256" height="69.0" fill="#2E6276"/>
  <rect x="1848" y="2611.8" width="256" height="61.6" fill="#E7F2F5"/>
</g>
<text x="1862" y="2556.8" font-family="Inter, system-ui, sans-serif" font-size="14" font-weight="bold" fill="#FFFFFF"><tspan x="1862" dy="14.0">application.review_completed</tspan></text>
<g transform="translate(1862.000,2582.400) scale(0.58333)"><path d="M7 2v11h3v9l7-12h-4l4-8z" fill="#FFFFFF"/></g>
<text x="1880" y="2582.4" font-family="Inter, system-ui, sans-serif" font-size="11" font-weight="normal" fill="#FFFFFF"><tspan x="1880" dy="11.0">EVENT (INTAKE)</tspan></text>
<text x="1862" y="2625.8" font-family="Inter, system-ui, sans-serif" font-size="12" font-weight="normal" fill="#0A2E34"><tspan x="1862" dy="12.0">Fires automatically when all</tspan><tspan x="1862" dy="16.8">VerificationItems are resolved</tspan></text>
<clipPath id="cc88"><rect x="1848" y="2685.399999999999" width="256" height="69.0" rx="8"/></clipPath>
<g clip-path="url(#cc88)">
  <rect x="1848" y="2685.399999999999" width="256" height="69.0" fill="#2E6276"/>
</g>
<text x="1862" y="2699.4" font-family="Inter, system-ui, sans-serif" font-size="14" font-weight="bold" fill="#FFFFFF"><tspan x="1862" dy="14.0">determination_complete</tspan></text>
<g transform="translate(1862.000,2725.000) scale(0.58333)"><path d="M7 2v11h3v9l7-12h-4l4-8z" fill="#FFFFFF"/></g>
<text x="1880" y="2725.0" font-family="Inter, system-ui, sans-serif" font-size="11" font-weight="normal" fill="#FFFFFF"><tspan x="1880" dy="11.0">EVENT (ELIGIBILITY)</tspan></text>
<line x1="2116" y1="2530.7999999999993" x2="2116" y2="3028.7999999999993" stroke="#DDDDDD" stroke-width="1"/>
<clipPath id="cc89"><rect x="2128" y="2542.7999999999993" width="256" height="69.0" rx="8"/></clipPath>
<g clip-path="url(#cc89)">
  <rect x="2128" y="2542.7999999999993" width="256" height="69.0" fill="#2E6276"/>
</g>
<text x="2142" y="2556.8" font-family="Inter, system-ui, sans-serif" font-size="14" font-weight="bold" fill="#FFFFFF"><tspan x="2142" dy="14.0">application.closed</tspan></text>
<g transform="translate(2142.000,2582.400) scale(0.58333)"><path d="M7 2v11h3v9l7-12h-4l4-8z" fill="#FFFFFF"/></g>
<text x="2160" y="2582.4" font-family="Inter, system-ui, sans-serif" font-size="11" font-weight="normal" fill="#FFFFFF"><tspan x="2160" dy="11.0">EVENT (INTAKE)</tspan></text>
<line x1="316" y1="3028.7999999999993" x2="2396" y2="3028.7999999999993" stroke="#AAAAAA" stroke-width="1"/>
<line x1="316" y1="92" x2="316" y2="3028.7999999999993" stroke="#AAAAAA" stroke-width="1"/>
<line x1="2396" y1="92" x2="2396" y2="3028.7999999999993" stroke="#AAAAAA" stroke-width="1"/>
</svg>